<?xml version="1.0" encoding="utf-8"?>
<!-- Generator: Adobe Illustrator 22.1.0, SVG Export Plug-In . SVG Version: 6.00 Build 0)  -->
<svg version="1.1" id="_x32_71e5882-3c8d-41ed-8a0a-1cb2b4d0cbc1"
	 xmlns="http://www.w3.org/2000/svg" xmlns:xlink="http://www.w3.org/1999/xlink" x="0px" y="0px" viewBox="0 0 1137.7 859.7"
	 style="enable-background:new 0 0 1137.7 859.7;" xml:space="preserve">
<style type="text/css">
	.st0{opacity:0.1;fill:#00AEEF;enable-background:new    ;}
	.st1{fill:url(#SVGID_1_);}
	.st2{fill:#D38884;}
	.st3{fill:#444053;}
	.st4{fill:#B07473;}
	.st5{opacity:0.1;enable-background:new    ;}
	.st6{fill:#00AEEF;}
	.st7{fill:#67647E;}
	.st8{fill:#585268;}
	.st9{fill:#E1E7EF;}
	.st10{fill:#A27772;}
	.st11{fill:#FBBEBE;}
	.st12{fill:#CC818C;}
	.st13{opacity:0.1;}
	.st14{fill:url(#SVGID_2_);}
	.st15{fill:#65617D;}
	.st16{opacity:5.000000e-02;enable-background:new    ;}
	.st17{fill:#7C5C5C;}
	.st18{fill:#FDC2CC;}
	.st19{fill:#A8A8A8;}
	.st20{opacity:0.2;enable-background:new    ;}
	.st21{fill:#F6F8FB;}
</style>
<title>team spirit</title>
<path class="st0" d="M12.3,406.5c18,70.1,56.1,130.8,116.3,160.2c125.2,61.1,407.5,29.6,618.1-6.6c109-18.7,204.7-70.3,274.3-143
	L12.3,406.5z"/>
<path class="st0" d="M1117,76.3h-115.6c-5.5,0-10-4.1-10-9.1s4.5-9.1,10-9.1h20c-5.5,0-10-4.1-10-9.1s4.5-9.1,10-9.1h-14.3
	c-5.5,0-10-4.1-10-9.1s4.5-9.1,10-9.1h60.3c-13.4-5.7-29-9.7-47.1-11.8C855.8-9.4,797,3.4,776.3,16.5c-25.8,16.5-54.5,28-84.5,33.8
	c-101.5,19.1-291.3,42.1-463.4-7.4c-85.4-24.6-148.9,17-187,86.3h1095.7c-1.4-20.2-5.7-38.8-13.6-55.1
	C1121.7,75.5,1119.4,76.3,1117,76.3z"/>
<path class="st0" d="M2.5,260.1c-4.4,40.8-2.9,82,4.5,122.4l1014.9,33.8c28-29.2,51.7-62.2,70.5-98L2.5,260.1z M403.8,347.4h-20
	c5.5,0,10,4.1,10,9.1s-4.5,9.1-10,9.1H268.3c-5.5,0-10-4.1-10-9.1s4.5-9.1,10-9.1h20c-5.5,0-10-4.1-10-9.1s4.5-9.1,10-9.1H274
	c-5.5,0-10-4.1-10-9.1s4.5-9.1,10-9.1h115.6c5.5,0,10,4.1,10,9.1s-4.5,9.1-10,9.1h14.2c5.5,0,10,4.1,10,9.1
	C413.8,343.3,409.4,347.4,403.8,347.4z"/>
<path class="st0" d="M1137.2,129.8l-1108,24.6C15.7,186,6.7,221.7,2.6,258.7h1115.1c7.3-21.7,12.6-43.9,16.1-66.5
	C1137.2,170.4,1138.5,149.4,1137.2,129.8z M227.6,210.3h-20c5.5,0,10,4.1,10,9.1s-4.5,9.1-10,9.1H92c-5.5,0-10-4.1-10-9.1
	s4.5-9.1,10-9.1h20c-5.5,0-10-4.1-10-9.1s4.5-9.1,10-9.1H97.7c-5.5,0-10-4.1-10-9.1s4.5-9.1,10-9.1h115.6c5.5,0,10,4.1,10,9.1
	s-4.5,9.1-10,9.1h14.3c5.5,0,10,4.1,10,9.1S233.1,210.3,227.6,210.3z"/>
<ellipse class="st0" cx="560" cy="725.3" rx="75.2" ry="16.9"/>
<ellipse class="st0" cx="734.8" cy="779" rx="135.7" ry="11.1"/>
<ellipse class="st0" cx="396.8" cy="677.5" rx="102.1" ry="16.9"/>
<linearGradient id="SVGID_1_" gradientUnits="userSpaceOnUse" x1="408.4793" y1="924.1401" x2="408.4793" y2="332.5907" gradientTransform="matrix(1 0 0 1 -31.16 -238.14)">
	<stop  offset="0" style="stop-color:#808080;stop-opacity:0.25"/>
	<stop  offset="0.54" style="stop-color:#808080;stop-opacity:0.12"/>
	<stop  offset="1" style="stop-color:#808080;stop-opacity:0.1"/>
</linearGradient>
<path class="st1" d="M473.1,275.7c-2.2-14.5-15.4-48.5-15.4-48.5l0,0c-0.2-1-0.5-2-0.8-3c-9.4-32.2-22.3-35-22.3-35l-46.5-10
	c0.4,0.2,0.7,0.6,1,0.9c-0.2,0-0.5,0.1-0.7,0.1c-2.1-2.5-3.5-5.6-4.1-8.8c-0.1-0.5-0.2-1-0.2-1.5c12.9-12.6,13.2-33.3,0.6-46.2
	c-1-1-2.1-2-3.3-2.9c-0.5-0.4-1-0.8-1.5-1.1c2.2-2.3,2.3-5.6,0.6-8.8c-3.7-7.6-11.6-12.4-19.8-14.8c-6.3-1.8-13-2.4-19.2-0.4
	c-3.5,1.1-6.8,3-10.1,4.7c-6.2,3.1-13,5.5-17.6,10.6c-1.1,1.2-2.1,2.7-1.8,4.3c0.2,1.2,1.2,2.1,1.8,3.1c1.3,2.3,1,5.2,0.1,7.7
	c-0.9,2.5-2.2,4.9-2.9,7.4s-0.4,5.6,1.5,7.5c0.9,0.7,1.9,1.4,2.9,2c1.1,0.9,2,2,2.8,3.1c1.8,2.5,3.7,4.9,5.5,7.4
	c2.6,3.3,4.9,6.8,6.9,10.5c1.4,2.7,2.4,5.6,4.3,8c0.5,0.7,1.2,1.4,1.8,1.9l-0.5-0.2c1.6,1.6,3.8,2.5,6.1,2.5l0,0c0.1,0,0.2,0,0.3,0
	c0.4,0,0.8-0.2,1.1-0.5c0,0.3,0,0.7,0,1c0.1,3.6,0.1,7.4-0.2,10.9l-0.4-0.2c-1.3-0.6-2.9-0.5-4,0.4l-42.8,34.3c0,0-9.3,12.7-8,34.7
	l-7.5,32.9c0,0-9.4,27.9-2.2,47.9S290,369,290,369s2.9,22.7,7.2,24.5s6.2,2.9,6.2,2.9l0.9,5.4l0,0c0,0,0.3,0.5,0.8,1.4
	c3.1,5.5,14.8,24.8,21.6,22.8c0.9,5.3,1.2,10.6,1.1,15.9l6.7,45c0,0,4.7,12.3,4.4,18.7s5.5,15.6,5.5,15.6c-3.5,6.4-4.5,13.8-2.9,21
	c2.7,12,6.2,67.3,6.2,67.3l5,13.4l-0.1,15.7c-0.4,2.6-1.5,5-3.1,7c-3.2,3.5-3,7.6-10.8,12.4s-12.8,6.6-12.8,13
	c0,0.9-0.1,1.8-0.2,2.7c-0.7,4.7-2.1,7.2,12.2,8.6c16.9,1.6,28.1-9.4,28.1-9.4s2.5-4.5,14.2-6.3c0,0,4-0.2,4.2-3.7
	c0.1-1.2,0.1-3.5,0-6.1c-0.2-4.9-0.7-10.6-1.3-10.9c-0.8-0.3-2.1-5.3-2.6-7h3.3c0,0,3-22.7,0-37.3s-0.3-25.1-0.3-25.1l-0.6-38.8
	c0,0-4-4.3-0.9-11.8s0-44.9,0-44.9s1.2-13.4,4.5-16.5s0.2-19.6,0-20.5l5.9,19.8c0,0,2.6,39.3,8.1,46.5l1.6,17.8
	c0,0,11.2,16.4,9.1,25.2s2.3,40.8,2.3,40.8v32.7c0,0-5,13.1,2,17.8l3-0.1c-1,0.9-1.8,2.3-2.9,3.5c-1.3,1.4-2.1,6.7-2.5,11.2
	c-0.4,3.8-0.5,7.2-0.5,7.2s3,4.8,8.7,5.1s24.3,14.5,24.3,14.5s18.4,0,23.2-1l0.3-0.1c1.5-0.5,2.8-1.5,3.6-2.9c1-1.6,1.3-3.5,0.9-5.4
	c-0.6-2.8-2.8-5.9-7.8-8.5c-12.3-6.5-14.1-12.5-14.1-12.5l-8.1-12.1h1.2c0,0-0.7-12.8,8.1-27.2l-0.6-63.4c0,0,3.6-21.8-2.6-33.7
	c0,0-0.5-12.5,3.6-16.4s-5.5-42.8-5.5-42.8s-2-20.9-4.3-40l0,0c9.7,9.2,19.8-24,21.5-29.9h0.3l-0.1-0.4c0.1-0.3,0.1-0.4,0.1-0.4l0,0
	c0,0-2.2-7.7-0.6-6.1s5.5-4.3,5.5-4.3s-0.6-31.8,6.2-47.8S473.1,275.7,473.1,275.7z M444.1,296L444.1,296c1,19.3-0.1,60.7-0.1,60.7
	s-1.3,5.3-2.8,11.6l-1-39.4l0,0l-1-37.1L444.1,296z M320,282.6c0,0,4.9,61.3,0,70.1c-1.4,2.5-2.6,7-3.5,12.1
	c-1.6-4.3-5-14.2-3.8-19.5c1.6-6.8-3.2-24.8-3.2-25.2s-0.4-10,3-17.3s1.2-10.5,1.2-10.5S316.6,280.3,320,282.6z"/>
<path class="st2" d="M332,420.6c-4.3,18.8-21.3-9.6-25.1-16.4c-0.5-0.9-0.8-1.4-0.8-1.4l1.8-8.6l9.7-4c1.5,0.8,3,1.8,4.4,2.8
	C327.3,397.2,335.2,406.1,332,420.6z"/>
<path class="st2" d="M463.7,389.9c0,0,0,0.1-0.1,0.4c0,0.1-0.1,0.3-0.1,0.5c-1.7,5.9-11.6,38.9-21.1,29.7
	c-10.5-10-5.4-33.1-5.4-33.1h0.1l22-2.3l4.4,4.5l0,0L463.7,389.9z"/>
<path class="st3" d="M451,552.3l0.6,63c-8.6,14.3-7.9,27-7.9,27l-28.4,1.1c-6.9-4.7-2-17.7-2-17.7v-32.4c0,0-4.4-31.7-2.3-40.5
	s-8.9-25-8.9-25l-1.6-17.7c-5.4-7.1-7.9-46.1-7.9-46.1l-5.8-19.7c0.2,0.9,3.2,17.3,0,20.3s-4.4,16.4-4.4,16.4s3.1,37.1,0,44.6
	s0.8,11.8,0.8,11.8l0.6,38.5c0,0-2.7,10.3,0.3,24.9s0,37.1,0,37.1h-30.5l0.1-15.7l-4.9-13.3c0,0-3.4-54.9-6.1-66.8
	c-1.6-7-0.6-14.4,2.8-20.8c0,0-5.6-9-5.4-15.4s-4.4-18.5-4.4-18.5l-6.6-44.7c0.2-8.6-0.9-17.2-3.3-25.5c-3.8-12.7-9.5-29.4-9.5-29.4
	l6.4,0.6l32.2,2.9c0,0,78.4-5.3,81.9-0.9c0.7,1.4,1.2,3,1.5,4.6c3.5,15.8,8.2,65.3,8.2,65.3s9.5,38.6,5.4,42.4s-3.6,16.3-3.6,16.3
	C454.5,530.6,451,552.3,451,552.3z"/>
<path class="st4" d="M384.7,661.7c-0.2,3.5-4.1,3.7-4.1,3.7c-11.5,1.8-13.9,6.3-13.9,6.3s-11,10.9-27.6,9.3
	c-14.1-1.4-12.7-3.9-12-8.5c0.1-0.9,0.2-1.7,0.2-2.6c0-6.4,4.9-8.2,12.5-13s7.4-8.8,10.6-12.3s3.5-10.3,3.5-10.3
	c3.6-6.3,12.7,1,12.7,1c0.4,2.2,14,1.9,14,1.9s1.8,7.2,2.7,7.6c0.6,0.3,1.1,5.9,1.3,10.8C384.7,658.2,384.8,660.5,384.7,661.7z"/>
<path class="st5" d="M384.7,661.7c-0.2,3.5-4.1,3.7-4.1,3.7c-11.5,1.8-13.9,6.3-13.9,6.3s-11,10.9-27.6,9.3
	c-14.1-1.4-12.7-3.9-12-8.5c6.3,1.6,18.3,3.7,25.4-0.1c9.8-5.3,16.8-9,16.8-9l15.4-7.8C384.7,658.2,384.8,660.5,384.7,661.7z"/>
<path class="st4" d="M471.1,680.6c-0.8,1.4-2,2.4-3.5,2.9l-0.3,0.1c-4.7,1-22.7,1-22.7,1s-18.3-14.1-23.8-14.4s-8.5-5.1-8.5-5.1
	s0.1-3.3,0.5-7.1c0.4-4.5,1.2-9.8,2.5-11.2c2.4-2.5,3-6,8.5-3.8c0,0,7.8-13.8,17.1-3.1l9.6,14.5c0,0,1.8,6,13.9,12.5
	c4.8,2.6,7,5.7,7.6,8.5C472.3,677.1,472,679,471.1,680.6z"/>
<path class="st5" d="M471.1,680.6c-1.1,0.9-2.3,1.9-3.5,2.9l-0.3,0.1c-4.7,1-22.7,1-22.7,1s-18.3-14.1-23.8-14.4s-8.5-5.1-8.5-5.1
	s0.1-3.3,0.5-7.1c5.6,1.7,14.1,4.7,16.4,7.8c3.5,4.9,14.1,11.7,14.1,11.7s19.8-1.9,28.6-2.2C472.3,677.1,472,679,471.1,680.6z"/>
<path class="st2" d="M393.9,186.8l-26.1,27.6c0,0-31.6-2.3-26.1-11.7c2.8-4.8,3.3-14.7,3-23.4c-0.2-8.4-1.1-15.5-1.1-15.5
	s44.4-22.1,41-1.5c-0.7,3.9-0.8,7.9-0.1,11.8C386.4,184.5,393.9,186.8,393.9,186.8z"/>
<path class="st5" d="M384.6,162.4c-0.7,3.9-0.8,7.9-0.1,11.8c-6.1,6.2-14.5,9.7-23.2,9.7c-6,0-12.5-4.9-17.3-7.8
	c-0.2-8.4-0.3-12.2-0.3-12.2S388,141.8,384.6,162.4z"/>
<path class="st2" d="M393.9,149.4c0,18.1-14.6,32.7-32.7,32.7s-32.7-14.6-32.7-32.7s14.6-32.7,32.7-32.7c7.4,0,14.6,2.5,20.4,7.1
	C389.4,130.1,393.9,139.5,393.9,149.4z"/>
<path class="st5" d="M438.4,394.8c-8.1,19.4-60.5,19.8-60.5,19.8v-21.1l-3.2-0.2c1.4,6-1.9,20.8-1.9,20.8
	c-41.4,5.8-51.5-17.7-51.5-17.7l1.4-8.1l32.2,2.9c0,0,78.4-5.3,81.9-0.9C437.7,391.6,438.2,393.2,438.4,394.8z"/>
<path class="st6" d="M377.9,412v-21.1l-3.2-0.2c1.4,6-1.9,20.8-1.9,20.8c-31.1,4.4-44.6-7.9-49.3-14.2c-0.9-1.1-1.6-2.3-2.2-3.5
	l12.6-71.1l3-104.6l4.5-18.4l1-8.8v-0.1h0.1l3.2,1.4l19.3,8.3l21.9-16.5l0.3-0.2l1.1-0.8l1.8,1.4l4.5,3.6l14.4,93.2
	c0,0,25,71.8,29.7,100.7c0.2,1.2,0.3,2.2,0.5,3.3C442.4,411.5,377.9,412,377.9,412z"/>
<circle class="st7" cx="367.5" cy="202.5" r="1.9"/>
<circle class="st7" cx="368.4" cy="219.5" r="1.9"/>
<circle class="st7" cx="370.2" cy="247" r="1.9"/>
<circle class="st7" cx="373.3" cy="276.6" r="1.9"/>
<circle class="st7" cx="375.1" cy="304.4" r="1.9"/>
<circle class="st7" cx="377" cy="334" r="1.9"/>
<circle class="st7" cx="376.3" cy="363.3" r="1.9"/>
<path class="st5" d="M343.8,333c0,0-2.1,27.2-5.9,35.1s-5.5,30.1-5.5,30.1l-8.9-1c-0.9-1.1-1.6-2.3-2.2-3.5l12.6-71.1l3-104.6
	l4.5-18.4l1-8.8l0.1-0.1c1-0.5,2.2-0.5,3.2,0.1l0.4,0.2c-0.1,0.4-0.2,0.7-0.4,1.1c-3.5,10.8-4.8,30.8-4.8,30.8s5,36.5,5.5,53.5
	S343.8,333,343.8,333z"/>
<path class="st5" d="M322,393c-0.1,0.2-0.2,0.4-0.3,0.7c-3.4,5.8-12.2,9.5-14.8,10.5c-0.5-0.9-0.8-1.4-0.8-1.4l1.8-8.6l9.7-4
	C319.2,391,320.6,391.9,322,393z"/>
<path class="st7" d="M298.4,254.1l-8.1,4.8l-7.4,32.7c0,0-9.2,27.7-2.1,47.5s11.2,31.1,11.2,31.1s2.8,22.5,7.1,24.3s6.1,2.8,6.1,2.8
	l0.9,5.4c0,0,11.5-3.9,15.6-10.8s-3-24-3-24s-6.1-14.6-4.5-21.4s-3.1-24.6-3.1-25s-0.4-9.9,3-17.2s1.1-10.4,1.1-10.4l-2.1-20.8
	L298.4,254.1z"/>
<path class="st5" d="M439.1,388.6c0,0-21.4,8.1-28.2,1s-6.1-40.2-6.1-40.2s-6.5-61.1-10.6-71.2s-2-82.5-2-82.5s-2.8-9.4-5.2-11.8
	c-0.2-0.2-0.3-0.3-0.5-0.4l0.8,0.2l2.9,0.6l4.5,3.6l14.4,93.2c0,0,25,71.8,29.7,100.7L439.1,388.6z"/>
<path class="st5" d="M463.7,390.8h-0.2c-2.7,0.4-26.4,3.2-26.5-1.7c0-0.6,0-1.1,0.1-1.7l22-2.3l4.4,4.5l0,0c0.1,0.3,0.1,0.5,0.2,0.7
	V390.8z"/>
<path class="st7" d="M440.9,221.3l15.6,8.1c0,0,13,33.7,15.1,48.1c0,0,9.6,38.7,3,54.6s-6.1,47.5-6.1,47.5s-3.8,5.8-5.4,4.3
	s0.6,6.1,0.6,6.1s-26.7,3.5-26.8-1.7S443,358,443,358s1.7-59.6-0.7-68.9S440.9,221.3,440.9,221.3z"/>
<path class="st5" d="M394.4,284.8c0,0-8.8,21.5-11.6,22.9s0.6,7.1,0.6,7.1S399.3,292.4,394.4,284.8z"/>
<path class="st5" d="M389.1,209.4c0.1-0.4-10.5,10.4-13.3,12S386.1,221.3,389.1,209.4z"/>
<path class="st5" d="M359.7,283.1c0,0-16.1,10.4-14,14.6S359.7,283.1,359.7,283.1z"/>
<path class="st5" d="M389,435.3c0,0,13.7,8.8,35.1,11L389,435.3z"/>
<path class="st5" d="M356,456.6c0,0,12.7,16,18.5,16.4C380.4,473.4,356,456.6,356,456.6z"/>
<path class="st5" d="M373.8,519.3c-0.6,0.3-7.2,14.4-14,14.9S373.8,519.3,373.8,519.3z"/>
<path class="st5" d="M432.8,550.3c0,0,12.6-2.8,15.4,6.2C448.3,556.5,447.4,553.6,432.8,550.3z"/>
<path class="st5" d="M424.3,602c0,0,15.3-3.1,18.5,1.1S424.3,602,424.3,602z"/>
<path class="st5" d="M381.1,609.3c0,0.1-15.6,3.1-15,5.1s16.6,1.7,17.2-1.4C383.7,611.3,382.7,609.7,381.1,609.3L381.1,609.3z"/>
<path class="st5" d="M419.3,622.7c0,0,25.6-3.1,24,2.3S419.3,622.7,419.3,622.7z"/>
<path class="st5" d="M285.4,307.7c0.1,0.4,16.8,2.7,19.1,8.1c0,0-16.4-7.6-19-7.6"/>
<path class="st5" d="M308.9,351.4c0,0-13.9,4.4-12.9,11S294.6,359.4,308.9,351.4z"/>
<path class="st5" d="M302.4,385.1c0,0,5-6.9,9.9-5.7S302.4,385.1,302.4,385.1z"/>
<path class="st5" d="M381.6,123.9c-0.5,0.5-1,0.9-1.6,1.2c-4,2.3-5.1,5.9-7,10.1c-1.8,3.8-3.7,7.8-7.3,9.9
	c-4.6,2.8-10.7,1.8-15.5,4.2c-4.4,2.3-6.9,6.9-6.4,11.8c0.3,1.8,0.8,3.7,1.4,5.4c1.1,3.8,1.6,7.8,1.5,11.8c0,0.1,0,0.2,0,0.4
	c-16.1-8.1-22.7-27.7-14.6-43.8s27.7-22.7,43.8-14.6C377.9,121.2,379.9,122.5,381.6,123.9L381.6,123.9z"/>
<path class="st8" d="M380.8,114.1c-3.6-7.5-11.4-12.3-19.4-14.6c-6.1-1.8-12.8-2.4-18.9-0.4c-3.5,1.1-6.6,3-9.9,4.6
	c-6.1,3.1-12.7,5.5-17.3,10.5c-1.1,1.2-2,2.7-1.7,4.2c0.2,1.1,1.1,2,1.7,3.1c1.3,2.3,1,5.2,0.1,7.7c-0.9,2.5-2.2,4.8-2.8,7.4
	s-0.4,5.6,1.5,7.4c0.9,0.8,1.9,1.3,2.9,2c1,0.9,2,1.9,2.7,3.1l5.4,7.4c2.5,3.3,4.8,6.7,6.8,10.4c1.3,2.7,2.4,5.5,4.2,7.9
	s4.6,4.3,7.6,4.1c0.5,0,0.9-0.2,1.2-0.6c0.1-0.2,0.2-0.5,0.1-0.8c0.1-4-0.4-7.9-1.4-11.7c-0.6-1.8-1.1-3.6-1.4-5.4
	c-0.5-4.9,2.1-9.6,6.4-11.8c4.8-2.4,10.9-1.4,15.5-4.2c3.6-2.2,5.5-6.2,7.3-10c1.9-4.1,3-7.7,7-10.1
	C382.3,121.9,382.8,118,380.8,114.1z"/>
<path class="st5" d="M366.1,648.3c0,0,5,6.4,3.7,10S366.1,648.3,366.1,648.3z"/>
<path class="st5" d="M433.8,664.3c0,0,1.1-8.5,5.6-8.6s4.7-0.5,8.1,0.8s6.6,3.3,5.6,3.6s-5.8-4.9-10.8-2.2
	C439.1,659.6,436.3,661.7,433.8,664.3z"/>
<path class="st5" d="M351.2,211.1l14-9.8c0,0-20.5-12.1-22.9-10.4s-4.1,17-4.1,17L351.2,211.1z"/>
<path class="st9" d="M351.2,210.5l14-10c0,0-20.5-12.1-22.9-10.4s-4.1,17.8-4.1,17.8L351.2,210.5z"/>
<path class="st6" d="M351.2,210.5l14-10c0,0-20.5-12.1-22.9-10.4s-4.1,17.8-4.1,17.8L351.2,210.5z"/>
<path class="st7" d="M344.6,190.2l-0.4-0.2c-1.3-0.7-2.8-0.5-3.9,0.4l-42,34.1c0,0-9.1,12.6-7.9,34.4l24.8,35.1
	c0,0,2.8-11.9,6.2-9.6c0,0,4.8,60.9,0,69.6s-6.9,41.6-6.9,41.6l16.3,1.8c0,0,1.7-22.2,5.5-30.1s5.9-35.1,5.9-35.1s3.4-39.6,2.9-56.5
	s-5.5-53.5-5.5-53.5S340.8,200.7,344.6,190.2z"/>
<path class="st5" d="M386.4,204.9l-17.5-6.5c0,0,22.2-24.3,25-10.8L386.4,204.9z"/>
<path class="st9" d="M386.4,204.1l-17.5-6.5c0,0,22.2-24.3,25-10.8L386.4,204.1z"/>
<path class="st6" d="M386.4,204.1l-17.5-6.5c0,0,22.2-24.3,25-10.8L386.4,204.1z"/>
<path class="st5" d="M385.8,183.4c0.3,0,0.5,0,0.7,0.2L385.8,183.4z"/>
<path class="st7" d="M387.5,181.7l46.3,10c0,0,12.7,2.8,21.9,34.8s-12.6,71.2-12.6,71.2l-4.8-4.1l2.4,93.4c0,0-21.4,8.1-28.2,1
	s-6.1-40.2-6.1-40.2s-6.5-61.1-10.6-71.2s-2-82.5-2-82.5S390.1,181.1,387.5,181.7z"/>
<path class="st5" d="M429.9,241.2c-0.7,0.6-1.4,28.9,1.4,50.4c1.7,13.1,4.4,26.1,8,38.8l-4.2-86.2
	C435.1,244.2,431.8,239.4,429.9,241.2z"/>
<path class="st5" d="M424.2,216.9c1.1,0.7,6.1,12.5,3.8,17.3S424.2,216.9,424.2,216.9z"/>
<path class="st5" d="M380.5,114.1c-2.3-4.5-5.8-8.2-10.2-10.7c3.2,2.3,5.9,5.4,7.6,9c2,4,1.4,8-2.5,10.2s-5.1,5.9-7,10.1
	c-1.8,3.8-3.7,7.8-7.3,10c-4.6,2.8-10.7,1.8-15.5,4.2c-4.3,2.3-6.9,7-6.4,11.8c0.3,1.8,0.8,3.6,1.4,5.4c1.1,3.8,1.6,7.8,1.5,11.8
	c0,0.3,0,0.5-0.2,0.8c-0.3,0.4-0.7,0.6-1.2,0.6c-1.2,0.1-2.4-0.1-3.5-0.6c1.6,1.6,3.8,2.4,6,2.4c0.6,0.1,1.2-0.4,1.3-1
	c0-0.1,0-0.2,0-0.3c0.1-4-0.4-7.9-1.5-11.8c-0.6-1.8-1.1-3.6-1.4-5.4c-0.5-4.9,2.1-9.6,6.4-11.8c4.8-2.4,10.9-1.4,15.5-4.2
	c3.6-2.2,5.5-6.2,7.3-10c1.9-4.1,3-7.7,7-10.1C382,122,382.5,118,380.5,114.1z"/>
<polygon class="st10" points="546.8,691.1 545.4,718.7 522.6,731 534.1,704.9 "/>
<path class="st4" d="M581,722.4l14.2,2.9l10.5-9.3v-26.2l0.2-3.6v-0.1l0,0v-0.8l2-29.1c0,0,14.2-48.5,16.4-57.8
	c1.6-6.6,0.9-26.5,0.4-37.5c-0.2-4.5-0.4-7.5-0.4-7.5l-31.3-7.6l-0.7,24.1l-2.3,84.4c-0.2,5.4-1.2,10.7-3.2,15.7l-0.1,0.3
	c-2.7,7.1-4.3,14.5-4.5,22.1l-1.1,26.8v0.7L581,722.4z"/>
<path class="st5" d="M606,685.4v0.7l0,0V685.4L606,685.4z"/>
<path class="st5" d="M581,722.4l14.2,2.9l10.5-9.3v-2.2c-0.1,1-0.6,1.9-1.5,2.4l-0.2,0.1c-4.9,2.6-10.4,3.7-15.9,3.2l-5.5-0.5
	c-0.5,0-1,0.2-1.5,0.4v0.7L581,722.4z"/>
<path class="st4" d="M604.1,717l0.2-0.1c0.9-0.5,1.5-1.5,1.5-2.6l0.2-28.2c0,0,3.1-2.2,2.3,7.7s-1.2,24.7-1.2,24.7
	s-0.1,16.2-15.5,16.2c0,0-15.4,2.9-15.3-5.9s6.4-9.2,6.4-9.2l5.5,0.5C593.6,720.7,599.2,719.6,604.1,717z"/>
<path class="st4" d="M507,716.4c0.4,6.4,19.1,2.7,19.1,2.7l12.6-24.5c0,0,10.5-8.1,5.3-15.2c-0.3-0.4-0.5-0.8-0.8-1.2c0,0,0,0,0-0.1
	l0,0c-0.1-0.2-0.2-0.4-0.3-0.6l0,0c-3.8-7.5-1.9-19.8-1.9-19.8s4.9-35.8,6.6-45.2c1.2-6.7,0.7-28.5,0.3-40.7
	c-0.2-5.1-0.3-8.5-0.3-8.5l-31.1-8.3c0,0,0,3.9,0,9.3c-0.1,7.7-0.3,18.4-1.1,25.4c-1.3,11.9,3.4,51.2,3.4,51.2l1.7,35.8
	c0.3,6.1-1.1,12.1-4,17.4c-3.9,7.1-9,17.2-9.3,21.7C507,715.9,507,716.2,507,716.4z"/>
<path class="st5" d="M507,716.4c0.4,6.4,19.1,2.7,19.1,2.7l12.6-24.5c0,0,10.5-8.1,5.3-15.2c-0.3-0.4-0.5-0.8-0.8-1.2
	c-0.2,3.7-4.2,13-4.2,13s-10.4,20.8-13.7,25.6s-17.7-0.9-18.2-1.1C507,716,507,716.2,507,716.4z"/>
<path class="st4" d="M542.9,677.6c0,0,6.2-1.4,4.3,14.6l0,0c0.1,3.7-1.7,7.2-4.9,9.2c-4.4,2.8-11.2,8.7-14.7,20.3l0,0
	c0,5.1-3.5,9.6-8.5,10.8c-5.6,1.3-12.5,2.4-16.5,1.3c-7.5-2.1-4.2-7.2-4.2-7.2l8.6-10.2c0,0,14.9,5.9,18.2,1.1s13.7-25.6,13.7-25.6
	S544.7,678.9,542.9,677.6z"/>
<path class="st3" d="M492.6,697.4c0,0,23.2,13.9,26.5,12.1s30.5-0.1,30.5-0.1s54,0.9,58-5.4s41.2,0.9,41.2,0.9
	c17.3,2.3,8.4-117.1,1.6-189.4c-2.8-29.3-22.6-119.9-30-128c-4.8-5.2-11.5-22.1-15.7-33.4c-2.3-6.2-3.8-10.6-3.8-10.6l-77.1,4.4
	l-0.6,6.3L506,441c0,0-17,94.6-13.5,140.9C495.7,621.8,492.6,697.4,492.6,697.4z"/>
<path class="st5" d="M612.2,454.2c-13.6,0.7-26.5,6.6-38.4,13.2s-23.5,14.2-36.4,18.9"/>
<path class="st5" d="M615.7,532.4c-16.1,2-31.2,11.3-42.3,26.3c-4,5.4-7.4,11.4-11.5,16.5c-6.3,7.9-14.1,13.6-22.7,16.4"/>
<path class="st5" d="M617.7,618.4c-12.2,3.2-23.3,9.5-32,18.2c-2.3,2.4-4.5,4.9-6.8,7.3c-12.7,12.8-30.6,19.6-47.9,26"/>
<path class="st11" d="M590.6,198.3c0.2,8.5,1,17.1,2.2,25.5c1,6,2.4,11.4,4.4,13.8c5.9,7-28.7,16.4-28.7,16.4l-20.4-15.8
	c0,0,16.2-14.9,8.6-29.4S590.6,198.3,590.6,198.3z"/>
<path class="st5" d="M523.3,354.1h81.5c-2.3-6.2-3.8-10.6-3.8-10.6l-77.1,4.4L523.3,354.1z"/>
<path class="st6" d="M513.2,402.8c0,0,13.4,6.5,17.8,5.7c17.7-3.1,67.5-18,77.7-3.3c6.7,9.7,21.9-8.4,21.9-8.4
	c-2.5-8.8-25.4-61.1-21.9-67.3c2.4-4.4,5.5-8.4,9.1-11.8l0.6-0.5l30.4-6.7l1.6-0.4c0,0,0.3-55.4-19.3-63s-31.3-17.9-31.3-17.9
	l-26.9,8.3l-19.8-10c-6.4,6.9-23.3,4.2-23.3,4.2c-27.7,3.2-27.7,24-27.7,24s16.2,37.7,17.4,37.7S513.2,402.8,513.2,402.8z"/>
<path class="st5" d="M548.1,317.4c0,0-17.8-3.9-23.8-10.8"/>
<path class="st5" d="M637.8,296.8l-20.6,16.9c0.1,1.3,0.4,2.7,0.7,4l0.6-0.5l30.4-6.7L637.8,296.8z"/>
<path class="st5" d="M582,346.7c0,0,4.5,2.5,11.4,5.9h11.8c-2.5-8.8,0-16.9,3.5-23.1l-20.9-6.8C594.9,329.3,582,346.7,582,346.7z"/>
<path class="st6" d="M514.4,249l-12.2,6.6l-12,30.4c0,0-12.5,33.3-11.3,42.1c0,0-4.4,20.8,3.4,24.5l20.4,9.2c1,0.4,2.1,0,2.5-1
	c0.2-0.5,0.2-1.1-0.1-1.6c-2.9-5.5-6.1-14.1-1-18.9l-5.9-12.2l21.2-34.8l7.1-12L514.4,249z"/>
<path class="st12" d="M592.1,335.8l-0.9,6.2l-5.6-2.5l-6.2-2.8C583.8,336.5,588.1,336.2,592.1,335.8z"/>
<circle class="st5" cx="567.8" cy="189.1" r="31.6"/>
<path class="st5" d="M587.4,255.9l-9.5-18.5c0,0,13.9-5.6,14.9-12.1s13.3,7.6,10.7,12.3S587.4,255.9,587.4,255.9z"/>
<path class="st6" d="M587.4,254.4l-9.5-18.5c0,0,13.9-5.6,14.9-12.1s13.3,7.6,10.7,12.3S587.4,254.4,587.4,254.4z"/>
<path class="st5" d="M506.4,355.8c0.4,1.6,0.9,3.4,0.1,4.9c-0.2,0.4-0.5,0.7-0.9,1c-0.3,0.1-0.7,0.2-1,0.1c-2.5-0.2-4.9-1.4-6.6-3.3
	s-3.1-3.9-4.3-6.2c-1.3-2.3-2.7-4.8-2.2-7.4c0.5-2.8,3-4.8,5.4-6.3c4.8-3.2,5,0.5,6.1,4.6S505.2,351.6,506.4,355.8z"/>
<path class="st6" d="M505.6,355.8c0.4,1.6,0.9,3.4,0.1,4.9c-0.2,0.4-0.5,0.7-0.9,1c-0.3,0.1-0.7,0.2-1,0.1c-2.5-0.2-4.9-1.4-6.6-3.3
	s-3.1-3.9-4.3-6.2c-1.3-2.3-2.7-4.8-2.2-7.4c0.5-2.8,3-4.8,5.4-6.3c4.8-3.2,5,0.5,6.1,4.6S504.5,351.6,505.6,355.8z"/>
<polygon class="st5" points="519.5,293.3 522,289.2 519.8,296.9 "/>
<path class="st5" d="M585.7,339.4l5.6,2.5l2.4-17.3l-5.4-3C592,326,588.8,333.9,585.7,339.4z"/>
<path class="st5" d="M608.3,319.4c0,0-18.2,1.1-25.9-3.9"/>
<g class="st13">
	<path d="M606,331c2.4-4.4,5.5-8.4,9.1-11.9c0.9-0.5,1.8-1,2.7-1.5l28.3-5.8l1.6-0.4c0,0,0.3-55.4-19.3-63
		c-11-4.2-21.3-10-30.6-17.2l2.2-0.7c0,0,11.8,10.3,31.3,17.9c19.5,7.6,19.3,63,19.3,63h-2.9l-29,5.5c0,0-1.3,1.2-1.6,1.6
		c-3.6,3.6-6.8,7.8-9.3,12.3c-3.8,7.1-4.7,15.5-2.4,23.2h-3C600.1,345.3,602.6,337.2,606,331z"/>
	<path d="M528.6,233.3c0.5-0.1,0.9-0.1,1.4-0.2c2,0.3,4,0.4,6,0.5C533.6,233.6,531.1,233.5,528.6,233.3z"/>
	<path d="M570.2,239l-17.9-9.1c0.4-0.3,0.7-0.6,1-1l18.7,9.5L570.2,239z"/>
</g>
<path class="st6" d="M638.5,295.3l12,14.7l2.5,39.9c0,0,3.2,20.3-20.1,15.4s-55.1-27.2-55.1-27.2s12.1-11.1,8.1-18.2L622,332
	c0,0,5.6-1.2,1.2-6.1s-5.2-13.7-5.2-13.7L638.5,295.3z"/>
<path class="st5" d="M643.9,337.4l6.6,7.6C647.1,344,644.5,341,643.9,337.4z"/>
<polygon class="st5" points="632.7,336.2 642.9,349.4 637.8,350.7 "/>
<path class="st5" d="M552.5,253.6l18.1-14.7c0,0-12.4-6.7-13.9-12.5s-11.4,2.7-10.4,7.9S552.5,253.6,552.5,253.6z"/>
<path class="st6" d="M553.2,251.4l18.1-14.7c0,0-12.4-6.7-13.8-12.5s-11.4,2.7-10.4,7.9S553.2,251.4,553.2,251.4z"/>
<circle class="st5" cx="572" cy="249" r="1.4"/>
<circle class="st5" cx="572" cy="257" r="1.4"/>
<circle class="st5" cx="572" cy="265" r="1.4"/>
<linearGradient id="SVGID_2_" gradientUnits="userSpaceOnUse" x1="771.7817" y1="1021.013" x2="771.7817" y2="433.1014" gradientTransform="matrix(1 0 0 1 -31.16 -238.14)">
	<stop  offset="0" style="stop-color:#808080;stop-opacity:0.25"/>
	<stop  offset="0.54" style="stop-color:#808080;stop-opacity:0.12"/>
	<stop  offset="1" style="stop-color:#808080;stop-opacity:0.1"/>
</linearGradient>
<path class="st14" d="M828.4,307.4c-21.2-12.2-29.2-15.2-29.2-15.2l-0.4-0.3c-2.3-1.8-4.1-4.1-5.3-6.7c0-0.5,0-1,0-1.5v0.1
	c0.3-6.5,4.9-12.3,9.3-17.4l11.1-13.1c1.3-1.3,2.2-2.8,2.9-4.5c0.2-0.9,0.3-1.9,0.3-2.8c0-0.4,0-0.8,0-1.1c-0.1-3.3-0.2-6.5-0.3-9.8
	c-0.1-2.8-0.8-6.4-3.7-7c-1.5-0.3-3.4,0.2-4.2-1c-0.3-0.5-0.3-1.1-0.2-1.7v0.1v-0.2c0.6-2.2,0.9-4.4,1-6.7c0.1-1.1-0.1-2.3-0.5-3.4
	c-1.6-4.7-7.3-6.6-12.3-7.5s-10.6-1.6-13.8-5.6c-0.8-1.3-1.8-2.6-2.7-3.8c-1.4-1.3-3.2-2.2-5.1-2.5c-6.2-1.5-12.8-1-18.6,1.6
	c-2.4,1.1-4.8,2.5-7.5,2.4s-5.1-2.1-7.8-2.5c-4.4-0.8-8.6,2.5-10.8,6.3c-1.3,2.3-2,4.8-2,7.4v0.4l0,0c-0.1,2.8,1,5.5,2.9,7.6
	c1.9,2,4.7,3.3,5.5,5.9c0.3,1,0.2,2.2,0.5,3.3c0,0.1,0.1,0.3,0.1,0.4l-0.1,0.2c-4.5,5.8-7,13-7,20.3c0.1,14.7,9.7,27.6,23.7,32
	c0,0.3,0,0.7,0,1c0,4-1.2,8.2-4.6,11.2l-30,12c0,0-18.1-2.1-24.6,24.3c-1,4.4-1.4,8.9-1.1,13.4c0.2,4-0.3,11-5,20.1
	c-7.4,14.5-5.7,47.9,9.4,51.1c14.3,3.1,19.9,1.8,20.5,1.7v0.6c-0.2,6.3-2.5,60.2-10.8,66.7c-2.3,1.8-1.9,3,0,3.8c0,0,0,0.3,0,1
	c-0.3,4-1.5,19-7,27.5c-6.4,9.9-5.7,67-5.7,67l-4.4,33.7c0,0,2.7,20.8,0,24.4c-2.4,3.2-5.6,80.1-6.3,96.8h-0.3
	c-2.7,0.2-5.1,1.7-6.5,4c-3.5,5.8-15.9,16.4-15.9,16.4c-2.7,3.8-12.6,7.5-17.9,9.2c-0.7,0.2-1.4,0.5-2,0.9c-2,1.1-3.6,2.7-4.5,4.8
	c-0.7,1.2-0.9,2.7-0.5,4c1.3,3.3,29.3,5.6,36.4,2.3c5.6-2.6,27.6-6,36.8-7.3c3.4-0.4,6.1-3.1,6.5-6.5c0.2-1.2-0.1-2.3-0.8-3.3l0,0
	c-1.8-2.2-2.6-8.1-3-12c0.7-0.3,1.4-0.7,2.1-1.2c-0.8-12,0.9-24,5-35.3c6.7-17.8,8.8-50.8,7.1-72.3c0,0,20.5-88.4,36.7-96.7l0,0
	c0.3,0.3,8.1,10.4,9.1,41.6c1,31.7,12.5,52.5,12.5,52.5s-5.1,53.8,0,73.9l-6.6,31.8c-0.5-0.4-0.8-0.7-0.8-0.7s0.2,0.9,0.5,2.3
	l-0.1,0.7l0.3,0.1c0.8,4,1.9,10.9,1.4,15c-0.3,2.3-0.9,5.5-1.3,8.6c-0.7,4.9-0.9,9.6,1.7,10.7c4.2,1.7,29,4,33.2-1.4
	c1.9-2.3,2.4-5.4,1.2-8.2c-0.3-0.7-0.7-1.5-1.2-2.1c0,0-6.6-10.8-4.7-18.3c0.3-1.5,0.1-3.1-0.8-4.3c0.3-3.7,1.8-20.9,5.7-35.6
	c4.2-15.9,13.1-50.7,6.6-73.6l0,0c-0.2-0.9-0.5-1.8-0.8-2.6c-3.8-12.5-5-25.6-3.7-38.6c-2.4-11.1-2.4-22.6,0-33.7
	c4-18.5,6.9-36.6,6.9-36.6s2.2-24.4,0.3-39.4c0-0.3-0.1-0.6-0.1-1l1.1-0.2c0,0-5.7-25.4-7.8-41.6c-0.5-3.8-1.1-8.6-1.8-13.8
	c1.9-0.3,3.7-0.8,5.5-1.4c18.2-6.3,23.9-63,23.9-63v-18C843.5,347.3,849.6,319.7,828.4,307.4z M692.8,745.7
	c-0.6-0.3-0.9-0.5-0.9-0.5l0,0L692.8,745.7z"/>
<path class="st15" d="M817.4,635c7.9,22.7-1.3,59.5-5.6,76s-5.6,36.2-5.6,36.2c-16.8,2.6-28.9-0.7-28.9-0.7l6.9-33.9
	c-4.9-20.1,0-73.7,0-73.7S773,618.2,772,586.7c-1-31.1-8.6-41.1-8.9-41.4l0,0c-15.8,8.2-35.8,96.4-35.8,96.4
	c1.6,21.4-0.3,54.3-6.9,72c-4,11.3-5.7,23.2-4.9,35.2c-2.3,2-5.5,2.3-9,1.7c-9.4-1.5-20.7-9.6-20.7-9.6s3.6-96,6.3-99.6
	s0-24.3,0-24.3l4.3-33.5c0,0-0.7-56.9,5.6-66.8c5.4-8.5,6.6-23.5,6.9-27.4c0-0.6,0-1,0-1l9.5-11.4c0,0,92.1-6.9,99,0
	c1.7,1.7,2.7,5.5,3.4,10.4c1.9,14.9-0.3,39.3-0.3,39.3s-2.8,18.1-6.7,36.5c-2.4,11.1-2.4,22.5,0,33.5
	C812.4,609.4,813.7,622.5,817.4,635z"/>
<path class="st10" d="M811.6,779.2c-4.1,5.4-28.3,3.1-32.4,1.4c-2.5-1-2.3-5.8-1.6-10.6c0.4-3.1,1.1-6.3,1.3-8.5
	c0.7-5.9-2-17.9-2-17.9s5.4,5.8,6.7,0c0.6-2.5,2.6-3.8,4.7-4.5c2.8-0.9,5.8-0.7,8.5,0.5c4.3,1.9,11.4,5.8,10.1,11.2
	c-1.8,7.5,4.6,18.3,4.6,18.3c0.5,0.6,0.9,1.3,1.2,2.1C814,773.8,813.5,776.9,811.6,779.2z"/>
<path class="st5" d="M811.6,779.2c-4.1,5.4-28.3,3.1-32.4,1.4c-2.5-1-2.3-5.8-1.6-10.6c2.6,1.2,7,2.2,14.4,1.5
	c1.7-0.2,3.4-0.2,5.2-0.2c5.2,0.2,10.5,0.1,15.7-0.3C814,773.8,813.5,776.9,811.6,779.2z"/>
<path class="st5" d="M727.3,641.6c1.6,21.4-0.3,54.3-6.9,72c-4,11.3-5.7,23.2-4.9,35.2c-2.3,2-5.5,2.3-9,1.7
	c2-13.9,10.4-73.6,15.8-120.8c6.2-53.8,35-90.8,35-90.8l5.8,6.3C747.3,553.4,727.3,641.6,727.3,641.6z"/>
<path class="st11" d="M801.8,295.9l-4,19.7l-19.7,33l-24.3-10.4c0,0-33-34.5-12.3-39.5c2.5-0.5,4.8-1.6,6.9-3.1
	c4.1-3.1,5.3-7.5,5.4-11.9c-0.2-4.9-1.3-9.7-3.3-14.1l42.4-13.3c-1.7,5.6-2.7,11.3-3,17.2c-0.3,11.6,4,17.3,7.5,20
	C798.7,294.7,800.2,295.4,801.8,295.9z"/>
<path class="st5" d="M792.9,256.5c-1.7,5.6-2.7,11.3-3,17.2c-0.8,0.9-1.6,1.8-2.5,2.6c-8.9,8.5-21.8,11.5-33.5,7.6
	c-0.2-4.9-1.3-9.7-3.4-14.1L792.9,256.5z"/>
<path class="st11" d="M797.8,251c0,18.5-15,33.6-33.5,33.6s-33.6-15-33.6-33.5s15-33.6,33.5-33.6l0,0c18.4-0.1,33.5,14.8,33.5,33.2
	C797.8,250.8,797.8,250.9,797.8,251z"/>
<path class="st5" d="M801.8,295.9l-4,19.7l-19.7,33l-24.3-10.4c0,0-33-34.5-12.3-39.5c2.5-0.5,4.8-1.6,6.9-3.1
	c-3.7,10.3,11.7,31.7,11.7,31.7c1.8,2.6,5.9,1,5.9,1c10-1.5,28.3-30.1,31.3-34.9C798.7,294.7,800.2,295.4,801.8,295.9z"/>
<path class="st5" d="M820.8,487.2c-5.8,1.3-38.2,8.5-50.4,6.7c-13.5-2-39.7-3.3-39.7-3.3s-16.7,0.9-21.8-1.5c0-0.6,0-1,0-1l9.5-11.4
	c0,0,92.1-6.9,99,0C819.1,478.5,820.1,482.3,820.8,487.2z"/>
<path class="st6" d="M760.2,328.5c0,0-17.3-24-10.8-33.4l-29.3,12c0,0-17.6-2.1-24,24.2c-1,4.4-1.4,8.9-1.1,13.4
	c0.2,4-0.3,11-4.8,20c-7.2,14.5-5.6,47.7,9.2,51s20.1,1.6,20.1,1.6s-2,60.2-10.5,67.1s21.8,5.3,21.8,5.3s26.2,1.3,39.7,3.3
	s51.3-6.9,51.3-6.9s-5.6-25.3-7.6-41.4s-6.6-50.4-6.6-50.4l33.5-45.4c0,0,5.9-27.5-14.8-39.6s-28.5-15.1-28.5-15.1
	s-20.8,33.9-31.7,35.5C766.1,329.5,762,331.1,760.2,328.5z"/>
<path class="st5" d="M721.7,338c0,0-0.3,10.9,1.7,15.1s9.2,28,9.2,28h-16.5c0,0,8.9-9.5,8.2-14.1S721.7,338,721.7,338z"/>
<path class="st11" d="M770.4,419.9c0,0-36.3-8.9-39.7-16.4S718,379,718,379l3.8-5.2l17.7,13.9c0,0,21,16.8,30.9,18.4
	S770.4,419.9,770.4,419.9z"/>
<path class="st16" d="M770.4,419.9c0,0-36.3-8.9-39.7-16.4S718,379,718,379l3.8-5.2l17.7,13.9c0,0,21,16.8,30.9,18.4
	S770.4,419.9,770.4,419.9z"/>
<path class="st11" d="M801.8,377.1v19.7h-3.2c-15.6,0-31,4-44.7,11.6l-5.9,3.3l-1.6,0.9l-10.2-23l9.5-8.5h0.5
	c2.3,0.2,12.4,1.1,16.7-0.4c4.1-1.4,9.1-5.8,21.1-2.7c5.9,1.5,10.9,8.1,16.6,6L801.8,377.1z"/>
<path class="st5" d="M833.5,341.3l6.6,7.4v17.9c0,0-5.6,56.6-23.3,62.8s-49.5-3.6-49.5-3.6s-8.2-21.7-4.4-23s33.8-9.2,33.8-9.2
	s-0.4-33.2,6.2-43c0,0-4.3-30.9,10.5-31.6S833.5,341.3,833.5,341.3z"/>
<path class="st6" d="M834.5,341.3l6.6,7.4v17.9c0,0-5.6,56.6-23.3,62.8s-49.5-3.6-49.5-3.6s-8.2-21.7-4.3-23s33.8-9.2,33.8-9.2
	s-0.4-33.2,6.2-43c0,0-4.3-30.9,10.5-31.6S834.5,341.3,834.5,341.3z"/>
<path class="st5" d="M788.6,265.3c0.3-2.2,0-4.4-0.8-6.4c-0.9-2-3.1-3.5-5.2-3c-2.8,0.7-4,4.3-6.8,5.2c-2.3,0.7-4.9-0.9-6-3.1
	s-1.1-4.7-1.1-7.2c0-2.7,0-5.5,0-8.2c0-3-0.1-6.2-1.9-8.6c-2.3-2.9-7.7-4.2-11.3-4.1c-2.4,0-4.7,1-6.4,2.6c-1.9,1.6-4.2,2.8-6.8,2.4
	c-2.2-0.3-4.1-1.9-4.7-4.1v-0.1c11.1-14.8,32.2-17.8,47-6.6c14.8,11.1,17.8,32.2,6.6,47c-1.1,1.5-2.4,2.9-3.7,4.2
	C788,272,788.3,268.6,788.6,265.3z"/>
<path class="st17" d="M742.2,234c-2.2-0.3-4.1-1.9-4.7-4.1c-0.3-1.1-0.2-2.2-0.5-3.2c-0.8-2.6-3.5-3.9-5.4-5.9
	c-3.7-3.9-3.5-10.4-0.8-15.1c2.1-3.8,6.2-7,10.5-6.3c2.7,0.5,5,2.4,7.7,2.5s5-1.3,7.3-2.4c5.7-2.6,12.1-3.2,18.2-1.6
	c1.9,0.4,3.6,1.2,5,2.5c1,1.2,1.8,2.5,2.7,3.8c3.1,3.9,8.5,4.7,13.4,5.6s10.4,2.8,12,7.5c1.1,3.1,0,6.5-0.6,9.7
	c-0.2,0.7-0.1,1.4,0.1,2c0.8,1.3,2.7,0.7,4.1,1c2.8,0.6,3.5,4.2,3.6,7c0.1,3.2,0.2,6.5,0.3,9.7c0.1,1.2,0,2.4-0.3,3.6
	c-0.6,1.7-1.6,3.2-2.8,4.5l-10.9,13c-4.8,5.8-9.9,12.5-9,20c-2.3,1-5-1-5.7-3.3s-0.2-5,0.4-7.4c0.9-4.2,1.5-8.5,1.7-12.9
	c0.3-2.2,0-4.4-0.8-6.4c-0.9-2-3.1-3.5-5.2-3c-2.8,0.7-4,4.3-6.8,5.2c-2.3,0.7-4.9-0.9-6-3.1s-1.1-4.7-1.1-7.1v-8.3
	c0-3-0.1-6.2-1.9-8.6c-2.3-2.9-7.7-4.2-11.3-4.1c-2.4,0-4.7,1-6.4,2.6C747.1,233.2,744.9,234.4,742.2,234z"/>
<path class="st5" d="M749.8,337.2l10.3,42.3C760.1,379.5,768.2,379.4,749.8,337.2z"/>
<path class="st5" d="M785,330.1c0,0-13.5,22.1-8.2,44.9l2.5,0.2C779.3,375.2,774.8,364.6,785,330.1z"/>
<path class="st5" d="M793.5,455.1c0,0,16.6-5.5,17.8,7.2C811.3,462.3,808.2,453.6,793.5,455.1z"/>
<path class="st5" d="M745.7,382.1c0,0-3.3,23,2.6,32.2c0,0-12,4.9-28.9,4l-2-36.2H745.7z"/>
<path class="st5" d="M747.9,411.7l-1.6,0.9l-10.2-23l9.5-8.5h0.5l0,0C746,382.2,743.4,402,747.9,411.7z"/>
<path class="st6" d="M745.7,381.1c0,0-3.3,23,2.6,32.2c0,0-12,4.9-28.9,4l-11.5-36.2H745.7z"/>
<path class="st10" d="M717.3,765.2c-0.4,3.4-3,6.1-6.4,6.5c-8.9,1.3-30.4,4.7-35.9,7.3c-6.9,3.3-34.2,1-35.5-2.3
	c-0.4-1.3-0.2-2.8,0.5-4c0.9-2,2.5-3.7,4.4-4.7c0.6-0.4,1.3-0.6,2-0.9c5.1-1.7,14.8-5.3,17.5-9.2c0,0,12.1-10.6,15.6-16.3
	c1.3-2.3,3.7-3.8,6.3-3.9c2.9-0.1,6.1,1.3,7.4,7.6c0,0,15.8,9,20,1.1c0,0,0.7,12.1,3.3,15.4l0,0C717.1,762.8,717.4,764,717.3,765.2z
	"/>
<path class="st5" d="M717.3,765.2c-0.4,3.4-3,6.1-6.4,6.5c-8.9,1.3-30.4,4.7-35.9,7.3c-6.9,3.3-34.2,1-35.5-2.3
	c-0.4-1.3-0.2-2.8,0.5-4c0.9-2,2.5-3.7,4.4-4.7c4.5,3,14.3,5.8,36.1,2.5c20.7-3.2,31-6.4,36-8.6l0,0
	C717.1,762.8,717.4,764,717.3,765.2z"/>
<g class="st13">
	<path d="M807,227.4v-0.2c0.5-2.5,1.2-5,1-7.5c-0.2,2-0.5,4-1,6C806.9,226.3,806.9,226.9,807,227.4z"/>
	<path d="M787.8,258.2c0.5,1.2,0.8,2.5,0.8,3.8c0.1-1.8-0.1-3.6-0.8-5.2c-0.9-2-3.1-3.5-5.2-3c-2.8,0.7-4,4.3-6.8,5.2
		c-2.3,0.7-4.9-0.9-6-3.1s-1.1-4.7-1.1-7.2c0-2.8,0-5.5,0-8.2c0-3-0.1-6.2-1.9-8.6c-2.3-2.9-7.7-4.2-11.3-4.1c-2.4,0-4.7,1-6.4,2.6
		c-1.9,1.6-4.2,2.8-6.8,2.4c-2.2-0.3-4.1-1.9-4.7-4.1c-0.3-1.1-0.2-2.2-0.5-3.3c-0.8-2.6-3.5-3.9-5.4-5.9c-1.7-1.9-2.7-4.4-2.8-7
		c-0.3,3.1,0.7,6.1,2.8,8.4c1.8,2,4.6,3.3,5.4,5.9c0.3,1,0.2,2.2,0.5,3.3c0.7,2.2,2.5,3.7,4.7,4.1c2.6,0.4,4.8-0.8,6.8-2.4
		c1.7-1.6,4-2.6,6.4-2.6c3.6-0.1,9,1.2,11.3,4.1c1.8,2.4,1.9,5.6,1.9,8.6c0,2.8,0,5.5,0,8.2c0,2.4,0,5,1.1,7.1
		c1.1,2.1,3.7,3.8,6,3.1c2.8-0.9,4-4.5,6.8-5.2C784.7,254.7,786.9,256.3,787.8,258.2z"/>
	<path d="M814.8,249.1c-0.6,1.7-1.6,3.2-2.8,4.5l-10.9,13c-4.6,5.5-9.4,11.9-9,18.9c0.3-6.4,4.8-12.3,9-17.4l10.9-13
		c1.2-1.3,2.2-2.8,2.8-4.5c0.3-1.2,0.4-2.4,0.3-3.6C815.1,247.7,815,248.4,814.8,249.1z"/>
	<path d="M786.5,283.4c-0.2-0.6-0.3-1.2-0.3-1.8c-0.1,1.1,0,2.2,0.3,3.2c0.7,2.4,3.5,4.4,5.7,3.3c-0.1-0.5-0.1-1-0.1-1.4
		C789.8,287.7,787.2,285.7,786.5,283.4z"/>
</g>
<path class="st5" d="M677.2,744.6c0,0,3.4,6,15.9,0.7"/>
<path class="st5" d="M782.5,746.1c0,0,10.7,12.7,24.3,4.2"/>
<path class="st5" d="M813.8,596.5c0,0-7.6,4.7-7.8,7.5s3.9-2,3.9-2L813.8,596.5z"/>
<path class="st5" d="M816.8,632.9c-2.6,2.2-5.9,3.5-9.3,3.7c-5.7,0.3-5.2,7.7-1.5,5.4S816.8,632.9,816.8,632.9z"/>
<path class="st5" d="M818.2,637.6c0,0-3.6,17.9-6.6,14.4"/>
<polygon class="st18" points="188,448.9 187.9,452.5 187.1,449 "/>
<polygon class="st16" points="188,448.9 187.9,452.5 187.1,449 "/>
<ellipse class="st0" cx="192.6" cy="716.1" rx="26.9" ry="4.5"/>
<ellipse class="st0" cx="86.5" cy="780.6" rx="26.9" ry="4.5"/>
<ellipse class="st6" cx="58.5" cy="722.9" rx="40.2" ry="6.8"/>
<path class="st6" d="M41.8,711.7c-1.8-1.5-3.2-3.5-3.8-5.8c-0.5-2.3,0.5-5,2.7-5.9c2.5-0.9,5.1,0.8,7.1,2.5s4.3,3.7,6.9,3.3
	c-2.7-2.5-4-6.2-3.2-9.8c0.1-0.7,0.4-1.4,0.9-2c1.4-1.5,3.8-0.8,5.5,0.3c5.2,3.7,6.7,10.7,6.7,17.1c0.5-2.3,0.1-4.7,0.1-7
	s0.7-5,2.6-6.2c1.2-0.7,2.6-1,4-1c2.3-0.1,4.9,0.2,6.5,1.9c2,2.1,1.5,5.7-0.3,8c-1.7,2.3-4.4,3.8-6.8,5.4c-1.9,1.2-3.6,2.7-4.8,4.6
	c-0.1,0.3-0.3,0.5-0.4,0.8H50.9C47.6,716.3,44.6,714.2,41.8,711.7z"/>
<ellipse class="st0" cx="1029.8" cy="754.1" rx="26.9" ry="4.5"/>
<path class="st19" d="M1011.8,733c0,0,15.4-0.5,20-3.8s23.6-7.2,24.8-1.9s23.1,26.3,5.7,26.4s-40.3-2.7-44.9-5.5
	S1011.8,733,1011.8,733z"/>
<path class="st8" d="M544.5,206.6c0,0,4.1,7.7-1,12c-4,3.3-20.2,9.5-26.6,15c-6.3,5.5-11.6,4.4-15.6,15.4s-23.5,44.6-16.7,53.7
	c6.8,9.2,17.6,4.4,22.2,11.3s52.3,8.9,52.3,17.8s15.5-95.3,8.8-102.9S555.3,199.7,544.5,206.6z"/>
<path class="st20" d="M1062.6,751.9c-17.3,0.1-40.3-2.7-44.9-5.5c-3.5-2.1-4.9-9.8-5.4-13.4h-0.5c0,0,1,12.4,5.6,15.2
	s27.6,5.7,44.9,5.5c5,0,6.7-1.8,6.6-4.5C1068.2,750.9,1066.3,751.9,1062.6,751.9z"/>
<circle class="st11" cx="567.8" cy="188.4" r="31.6"/>
<path class="st8" d="M571.8,333.1l7.7,3.5c-6,0.1-11.9-0.2-17.4-1.2c-4.1-0.7-7.1-6.3-9.1-14.7c1.7,0.7,3.6,1.3,5.8,1.8L571.8,333.1
	z"/>
<path class="st5" d="M541.6,310.5c1.1,4.3,4.6,11,16.5,13.5l13,10.6l9.4,4.2l7.1-15.7l-6.3-3.5c0,0-14.3-25.9-36.9-15
	C542.1,305.7,541,308.1,541.6,310.5z"/>
<path class="st8" d="M648.9,323.6c-7.3-3.9-30.2,7.5-30.2,7.5s0,0-10-3.2l-15-3.1l-5.4-3l-6.3-3.4c0,0-12.1-21.9-31.7-16.9
	c-2.7-34.6,2.3-83,8.9-81.9c10.1,1.7,15-25.4,14.3-31.1c-3-1.7-14.9-20.7-21.2-21.8c-9.9-1.8-17.8,22.7-16.2,14.3
	c0,0-2-35.3,37.4-33.1c40.3,2.3,29.2,64.6,34.8,67.8s10.4,18.5,27,32c16.6,13.5,17.9,64.2,17.9,64.2S656.2,327.4,648.9,323.6z"/>
<path class="st11" d="M579.5,336.6l-7.7-3.5l-13-10.6c-2.2-0.5-4.1-1.1-5.8-1.8c-7.3-3.1-9.9-8.2-10.7-11.7
	c-0.5-2.3,0.6-4.7,2.7-5.7c1.8-0.9,3.5-1.5,5.2-1.9c19.6-5.1,31.7,16.9,31.7,16.9l6.3,3.4C588.2,321.7,583.7,337.7,579.5,336.6z"/>
<path class="st21" d="M509.6,302.1l52.5,70.6c0,0-19.3,10.5-46-8.3l-11.5-13.7l-32.9-55.4L509.6,302.1z"/>
<path class="st11" d="M499.5,342l4.6-1.6c0,0,29.2-28.3,36.4-14s-18.2,27.7-18.2,27.7l-7.7,4.2l-8.4,1.3l-1.7-8L499.5,342z"/>
</svg>
