<?xml version="1.0" encoding="UTF-8" standalone="no"?>
<svg
   xmlns:dc="http://purl.org/dc/elements/1.1/"
   xmlns:cc="http://creativecommons.org/ns#"
   xmlns:rdf="http://www.w3.org/1999/02/22-rdf-syntax-ns#"
   xmlns:svg="http://www.w3.org/2000/svg"
   xmlns="http://www.w3.org/2000/svg"
   xmlns:sodipodi="http://sodipodi.sourceforge.net/DTD/sodipodi-0.dtd"
   xmlns:inkscape="http://www.inkscape.org/namespaces/inkscape"
   width="63"
   height="63"
   viewBox="0 0 7.3828125 7.3828125"
   version="1.1"
   id="svg19"
   sodipodi:docname="creative-design.svg"
   inkscape:version="0.92.5 (2060ec1f9f, 2020-04-08)">
  <metadata
     id="metadata23">
    <rdf:RDF>
      <cc:Work
         rdf:about="">
        <dc:format>image/svg+xml</dc:format>
        <dc:type
           rdf:resource="http://purl.org/dc/dcmitype/StillImage" />
        <dc:title>035 - Creative Thinking</dc:title>
      </cc:Work>
    </rdf:RDF>
  </metadata>
  <sodipodi:namedview
     pagecolor="#ffffff"
     bordercolor="#666666"
     borderopacity="1"
     objecttolerance="10"
     gridtolerance="10"
     guidetolerance="10"
     inkscape:pageopacity="0"
     inkscape:pageshadow="2"
     inkscape:window-width="1320"
     inkscape:window-height="731"
     id="namedview21"
     showgrid="false"
     inkscape:zoom="2.6074563"
     inkscape:cx="16.975018"
     inkscape:cy="64.046763"
     inkscape:window-x="46"
     inkscape:window-y="0"
     inkscape:window-maximized="1"
     inkscape:current-layer="svg19" />
  <!-- Generator: Sketch 51.3 (57544) - http://www.bohemiancoding.com/sketch -->
  <title
     id="title2">035 - Creative Thinking</title>
  <desc
     id="desc4">Created with Sketch.</desc>
  <defs
     id="defs6" />
  <g
     id="g837"
     transform="matrix(0.12304613,0,0,0.12304613,0.00251842,4.4663717e-5)"
     style="fill:#5d78ff;fill-opacity:1">
    <g
       id="Page-1"
       style="fill:#5d78ff;fill-opacity:1;fill-rule:evenodd;stroke:none;stroke-width:1">
      <g
         id="035---Creative-Thinking"
         style="fill:#5d78ff;fill-opacity:1;fill-rule:nonzero">
        <path
           id="Shape"
           d="m 51.768,44 c 0.317602,-1.685948 0.309456,-3.417116 -0.024,-5.1 l 4.58,-11.053 c 4.75e-4,-0.0073 4.75e-4,-0.01467 0,-0.022 0.742176,-2.031946 1.82984,-3.920386 3.215,-5.582 0.344648,-0.364036 0.483291,-0.8769 0.369,-1.365 l -1.878,-8.11 c -0.02235,-0.08478 -0.05598,-0.166175 -0.1,-0.242 -0.008,-0.015 -0.011,-0.033 -0.019,-0.047 -0.008,-0.014 -0.043,-0.048 -0.063,-0.074 -0.04093,-0.05991 -0.0882,-0.115235 -0.141,-0.165 -0.03478,-0.02447 -0.0712,-0.04652 -0.109,-0.066 -0.04876,-0.03589 -0.100636,-0.06735 -0.155,-0.094 -0.07538,-0.02847 -0.153967,-0.04761 -0.234,-0.057 -0.023,0 -0.043,-0.015 -0.066,-0.017 -0.191668,-0.01277 -0.382959,0.02993 -0.551,0.123 -0.015,0.008 -0.033,0.011 -0.048,0.02 h -0.01 l -7.061,4.407 c -0.427608,0.264795 -0.693027,0.727211 -0.706,1.23 -0.196153,2.159157 -0.764897,4.268008 -1.681,6.233 v 0.011 l -2.289,5.533 c -1.123462,-0.597229 -2.32618,-1.031581 -3.572,-1.29 0.47158,-3.25507 0.644966,-6.546399 0.518,-9.833 1.861505,-2.233451 2.754893,-5.117344 2.482,-8.012 C 43.6,4.6 38.333,0.391 38.108,0.214 37.769828,-0.05230766 37.299186,-0.07233564 36.939612,0.16427975 36.580038,0.40089514 36.412221,0.84105747 36.523,1.257 c 0.515,1.934 0.069,3.975 -3.735,8.172 -1.70911,1.650288 -2.250849,4.170108 -1.371,6.377 0.336401,0.844098 0.818383,1.622582 1.424,2.3 -0.242,1.545 -0.432,3.008 -0.563,4.433 -0.225568,2.356915 -0.283714,4.726859 -0.174,7.092 -0.892104,0.483667 -1.727298,1.06562 -2.49,1.735 l -4.85,-20.74 c 0,-0.021 -0.02,-0.036 -0.026,-0.055 -0.01628,-0.06668 -0.03975,-0.13139 -0.07,-0.193 L 19.714,1.229 C 19.218217,0.31327325 18.170842,-0.1572915 17.156955,0.08017039 16.143068,0.31763228 15.413582,1.2043543 15.376,2.245 L 15,12.64 c 2.43e-4,0.07502 0.0086,0.14979 0.025,0.223 0,0.016 0,0.03 0,0.045 l 4.948,21.117 c -0.78055,0.03446 -1.555393,0.150085 -2.312,0.345 L 12.218,21.225 C 11.781545,20.220151 10.623939,19.746021 9.608,20.156 L 1.289,23.6 c -1.0181328,0.424985 -1.5019791,1.592381 -1.083,2.613 L 7.588,44.021 C 3.2615064,44.248155 -0.0968273,47.880063 0.01484286,52.211077 0.12651302,56.54209 3.6675491,59.996106 8,60 h 44 c 2.858125,-0.04144 5.477032,-1.604529 6.870203,-4.100459 1.393172,-2.49593 1.348953,-5.545513 -0.116,-8 C 57.28925,45.445054 54.626125,43.958557 51.768,44 Z M 50.749,18.116 54.941,15.5 53.457,19.084 c -0.211525,0.510311 0.03069,1.095475 0.541,1.307 0.510311,0.211525 1.095475,-0.03069 1.307,-0.541 l 1.484,-3.584 1.111,4.813 c -1.188675,1.450147 -2.165114,3.061945 -2.9,4.787 -1.042586,0.483283 -2.239812,0.508361 -3.301721,0.06916 C 50.63637,25.495958 49.806625,24.632535 49.41,23.554 c 0.702325,-1.739877 1.153189,-3.570941 1.339,-5.438 z m -2.3,7.851 c 0.66156,0.808824 1.520074,1.433854 2.493,1.815 0.773358,0.332632 1.605179,0.508038 2.447,0.516 0.202541,-7.44e-4 0.404873,-0.0131 0.606,-0.037 l -3.191,7.7 C 49.848497,33.854311 48.370384,32.026808 46.51,30.652 Z m -13.7,-7.142 5.024,0.307 c 0.031,0.934 0.02,1.9 -0.011,2.881 -1.673673,0.119586 -3.355645,0.03834 -5.01,-0.242 -0.126,-0.018 -0.249,-0.032 -0.374,-0.049 0.1,-0.942 0.222,-1.896 0.369,-2.897 z m -0.477,-8.053 c 2.655,-2.929 4.031,-5.182 4.351,-7.3 1.908416,1.9635459 3.168147,4.465554 3.609,7.168 0.21002,2.352593 -0.51739,4.692955 -2.024,6.512 -1.975333,-0.12 -3.929,-0.24 -5.861,-0.36 C 33.516848,16.015932 33.039293,14.93474 33.024759,13.79842 33.010225,12.6621 33.459969,11.569047 34.27,10.772 Z m -0.076,12.943 0.29,0.038 c 1.288564,0.199281 2.589288,0.309875 3.893,0.331 0.414,0 0.85,-0.033 1.287,-0.067 -0.091,1.287 -0.24,2.631 -0.429,4.02 C 38.99,28.024 38.748,28 38.5,28 c -1.509779,0.0027 -3.008233,0.260677 -4.432,0.763 -0.04611,-1.683713 -0.0041,-3.368685 0.126,-5.048 z M 26.461,35.409 23.6,23.222 C 23.466248,22.693276 22.933514,22.369227 22.402503,22.493593 21.871493,22.61796 21.538059,23.14487 21.653,23.678 l 2.571,10.969 c -0.706875,-0.252801 -1.437133,-0.434696 -2.18,-0.543 l -4.389,-18.73 c 0.614842,0.279939 1.28243,0.425185 1.958,0.426 0.063,0 0.13,-0.009 0.194,-0.012 l 0.707,3.019 c 0.07619,0.353369 0.337148,0.638112 0.682551,0.744747 0.345402,0.106635 0.721465,0.01856 0.983593,-0.230364 C 22.442272,19.072461 22.549654,18.701448 22.461,18.351 L 21.753,15.33 C 22.431479,15.029639 23.029893,14.574064 23.5,14 l 4.462,19.079 c -0.579439,0.722759 -1.082456,1.503592 -1.501,2.33 z m -6.11,-21.7 c -1.278919,0.248035 -2.584712,-0.27483 -3.339,-1.337 L 17.139,8.85 c 0.347944,0.064987 0.701042,0.098456 1.055,0.1 0.34188,0.00143 0.68279,-0.036482 1.016,-0.113 0.674604,-0.1771658 1.305638,-0.4909811 1.854,-0.922 l 1.684,3.108 c -0.200648,1.28952 -1.138788,2.341553 -2.397,2.688 z M 17.612,2.027 c 0.13622,-0.03155 0.276796,0.031382 0.344,0.154 L 20.1,6.146 c -0.386764,0.3498926 -0.848593,0.606464 -1.35,0.75 -0.512475,0.094064 -1.039712,0.069088 -1.541,-0.073 l 0.163,-4.506 c 0.0054,-0.1397334 0.103748,-0.2585291 0.24,-0.29 z M 10.375,22 l 0.764,1.846 -3.7,1.532 C 7.0003599,25.562202 6.7522207,26.029932 6.8456624,26.496413 6.9391042,26.962893 7.3482539,27.298961 7.824,27.3 7.9553847,27.299719 8.0854627,27.27391 8.207,27.224 l 3.7,-1.533 0.765,1.848 -1.851,0.767 c -0.441152,0.182567 -0.691716,0.651522 -0.59827,1.119725 0.09345,0.468203 0.504834,0.805044 0.98227,0.804275 0.131043,-4.61e-4 0.26076,-0.02627 0.382,-0.076 l 1.851,-0.767 0.765,1.848 -3.703,1.535 c -0.441152,0.182567 -0.6917156,0.651523 -0.5982697,1.119725 0.093446,0.468203 0.5048337,0.805044 0.9822697,0.804275 0.131053,-3.6e-4 0.260789,-0.02617 0.382,-0.076 l 3.7,-1.532 0.809,1.953 C 12.516394,36.52637 10.126889,39.434739 9.3,42.92 L 2.052,25.444 Z M 52,58 H 8 c -3.3137085,0 -6,-2.686292 -6,-6 0,-3.313708 2.6862915,-6 6,-6 0.5794261,-0.0019 1.1559668,0.08164 1.711,0.248 0.299843,0.09057 0.624801,0.03542 0.877972,-0.149004 C 10.842143,45.914568 10.994275,45.622171 11,45.309 11.071135,41.745075 13.131391,38.520894 16.335641,36.959034 19.53989,35.397173 23.348824,35.760509 26.2,37.9 c 0.25195,0.187527 0.577366,0.245789 0.878729,0.157326 C 27.380092,37.968864 27.622385,37.743955 27.733,37.45 29.686705,32.243182 35.086382,29.180449 40.557902,30.175628 46.029423,31.170808 50.004835,35.938715 50,41.5 c 0.0019,1.143637 -0.168293,2.281051 -0.505,3.374 -0.105101,0.340044 -0.02154,0.710324 0.219405,0.972278 0.240949,0.261954 0.60297,0.3761 0.950595,0.299722 C 51.10346,46.0495 51.551046,46.000546 52,46 c 3.313708,0 6,2.686292 6,6 0,3.313708 -2.686292,6 -6,6 z"
           inkscape:connector-curvature="0"
           style="fill:#5d78ff;fill-opacity:1" />
        <path
           id="path9"
           d="m 38.685,15.7 c 0.31388,0.0012 0.610103,-0.145077 0.8,-0.395 1.248449,-1.689754 1.730919,-3.825681 1.33,-5.888 C 40.72971,9.0643731 40.460124,8.7855988 40.110552,8.6885421 39.760981,8.5914851 39.386262,8.6913721 39.131383,8.9495524 38.876505,9.2077331 38.781451,9.5837069 38.883,9.932 c 0.239414,1.465437 -0.117832,2.965727 -0.992,4.166 -0.227263,0.303018 -0.263819,0.70843 -0.09443,1.047214 0.169395,0.338784 0.515658,0.552786 0.89443,0.552786 z"
           inkscape:connector-curvature="0"
           style="fill:#5d78ff;fill-opacity:1" />
        <path
           id="path11"
           d="m 37.37,46 c -0.743614,0.0023 -1.477019,0.173247 -2.145,0.5 C 33.426081,44.038434 30.067117,43.317329 27.416371,44.823638 24.765626,46.329946 23.665976,49.584697 24.86,52.39 c 0.157113,0.368721 0.519201,0.608014 0.92,0.608 0.134752,3.17e-4 0.268148,-0.02691 0.392,-0.08 0.244005,-0.103958 0.436716,-0.300593 0.535736,-0.546643 C 26.806757,52.125307 26.803974,51.849998 26.7,51.606 26.482303,51.098561 26.37003,50.552165 26.37,50 c 0,-2.209139 1.790861,-4 4,-4 1.551523,-0.0077 2.964625,0.891349 3.615,2.3 0.02163,0.03257 0.045,0.06394 0.07,0.094 0.01579,0.03429 0.03349,0.06768 0.053,0.1 0.018,0.022 0.044,0.032 0.064,0.053 0.04691,0.0487 0.09887,0.09228 0.155,0.13 0.04995,0.03846 0.103541,0.07195 0.16,0.1 0.05808,0.02435 0.118355,0.0431 0.18,0.056 0.0615,0.01614 0.124499,0.02586 0.188,0.029 0.129913,-0.001 0.258842,-0.02264 0.382,-0.064 0.02665,-0.0049 0.05303,-0.01125 0.079,-0.019 0.03245,-0.02098 0.06351,-0.04403 0.093,-0.069 0.03599,-0.016 0.07105,-0.03403 0.105,-0.054 0.525269,-0.424794 1.180458,-0.656369 1.856,-0.656 1.169253,0.0019 2.230864,0.682973 2.72,1.745 0.229198,0.502579 0.822421,0.724198 1.325,0.495 0.502579,-0.229198 0.724198,-0.822421 0.495,-1.325 C 41.095719,47.140165 39.322714,46.00177 37.37,46 Z"
           inkscape:connector-curvature="0"
           style="fill:#5d78ff;fill-opacity:1" />
        <path
           id="path13"
           d="M 17.684,39.051 C 17.533,39.1 14,40.322 14,44 c 0,0.552285 0.447715,1 1,1 0.552285,0 1,-0.447715 1,-1 0.08163,-1.394987 0.999479,-2.601789 2.322,-3.053 0.52467,-0.176179 0.807179,-0.744329 0.631,-1.269 -0.176179,-0.524671 -0.74433,-0.807179 -1.269,-0.631 z"
           inkscape:connector-curvature="0"
           style="fill:#5d78ff;fill-opacity:1" />
        <path
           id="path15"
           d="m 31.757,37.97 c 0.07942,0.02016 0.161062,0.03024 0.243,0.03 0.458306,-4.7e-4 0.857632,-0.31243 0.969,-0.757 0.460269,-1.867338 2.113357,-3.195625 4.036,-3.243 0.552285,-0.0014 0.998881,-0.450215 0.9975,-1.0025 C 38.001119,32.445215 37.552285,31.998619 37,32 c -2.842301,0.03774 -5.298516,1.994897 -5.97,4.757 -0.13419,0.535714 0.191293,1.078783 0.727,1.213 z"
           inkscape:connector-curvature="0"
           style="fill:#5d78ff;fill-opacity:1" />
      </g>
    </g>
  </g>
</svg>
