<svg fill="white" height="424pt" viewBox="0 -25 424 424" width="424pt" xmlns="http://www.w3.org/2000/svg"><path d="m197.964844 323.804688c-.023438 0-.050782 0-.074219 0-22.160156-.019532-42.984375-8.664063-58.640625-24.347657-15.625-15.652343-24.238281-36.449219-24.25-58.566406.035156-22.132813 8.644531-42.957031 24.234375-58.648437 15.363281-15.433594 36.632813-24.269532 58.402344-24.269532h.300781c3.859375.015625 6.976562 3.144532 6.976562 7v68.917969l68.914063-.003906c1.859375 0 3.640625.742187 4.953125 2.054687 1.316406 1.316406 2.050781 3.101563 2.046875 4.957032-.035156 22.121093-8.644531 42.945312-24.234375 58.636718-15.683594 15.660156-36.496094 24.269532-58.628906 24.269532zm-7.050782-151.492188c-15.667968 1.570312-30.589843 8.585938-41.753906 19.800781-12.96875 13.050781-20.128906 30.378907-20.160156 48.785157.011719 18.367187 7.167969 35.65625 20.15625 48.667968 13.015625 13.035156 30.328125 20.222656 48.75 20.238282h.058594c18.398437 0 35.699218-7.15625 48.722656-20.15625 11.292969-11.367188 18.183594-25.996094 19.785156-41.761719l-68.558594.003906c-1.855468 0-3.636718-.738281-4.949218-2.050781s-2.050782-3.09375-2.050782-4.949219zm0 0"/><path d="m302 220.195312h-75.914062c-3.867188 0-7-3.132812-7-7v-75.914062c0-3.859375 3.128906-6.992188 6.988281-7 22.097656-.078125 42.921875 8.546875 58.585937 24.164062 15.660156 15.613282 24.308594 36.394532 24.339844 58.511719v.238281c0 3.867188-3.132812 7-7 7zm-68.914062-14h61.578124c-1.5625-15.808593-8.488281-30.46875-19.890624-41.835937-11.347657-11.316406-25.953126-18.183594-41.6875-19.738281zm0 0"/><path d="m225.957031 220.085938c-1.792969 0-3.582031-.683594-4.949219-2.050782-2.734374-2.734375-2.734374-7.167968 0-9.898437l53.703126-53.707031c2.734374-2.734376 7.167968-2.734376 9.902343 0 2.730469 2.734374 2.730469 7.167968 0 9.898437l-53.707031 53.707031c-1.367188 1.367188-3.160156 2.050782-4.949219 2.050782zm0 0"/><path d="m226.035156 186.492188c-1.789062 0-3.582031-.683594-4.949218-2.050782-2.734376-2.734375-2.734376-7.167968 0-9.898437l34.113281-34.117188c2.734375-2.730469 7.167969-2.730469 9.898437 0 2.734375 2.734375 2.734375 7.167969.003906 9.898438l-34.117187 34.117187c-1.367187 1.367188-3.15625 2.050782-4.949219 2.050782zm0 0"/><path d="m259.363281 220.195312c-1.792969 0-3.582031-.683593-4.949219-2.046874-2.734374-2.734376-2.734374-7.167969 0-9.902344l34.324219-34.324219c2.734375-2.734375 7.167969-2.734375 9.902344 0 2.730469 2.730469 2.730469 7.164063 0 9.898437l-34.328125 34.328126c-1.367188 1.363281-3.160156 2.046874-4.949219 2.046874zm0 0"/><path d="m377 374.085938h-330c-25.914062 0-47-21.082032-47-47v-280.085938c0-25.914062 21.085938-47 47-47h330c25.914062 0 47 21.085938 47 47v280.085938c0 25.917968-21.085938 47-47 47zm-330-360.085938c-18.195312 0-33 14.804688-33 33v280.085938c0 18.195312 14.804688 33 33 33h330c18.195312 0 33-14.804688 33-33v-280.085938c0-18.195312-14.804688-33-33-33zm0 0"/><path d="m417 112.089844h-410c-3.867188 0-7-3.132813-7-7 0-3.863282 3.132812-7 7-7h410c3.867188 0 7 3.136718 7 7 0 3.867187-3.132812 7-7 7zm0 0"/><path d="m119.601562 78.59375c-12.210937 0-22.152343-9.941406-22.152343-22.152344 0-12.214844 9.941406-22.152344 22.152343-22.152344 12.214844 0 22.152344 9.9375 22.152344 22.152344 0 12.210938-9.9375 22.152344-22.152344 22.152344zm0-30.304688c-4.492187 0-8.152343 3.65625-8.152343 8.152344s3.660156 8.152344 8.152343 8.152344c4.496094 0 8.152344-3.65625 8.152344-8.152344s-3.65625-8.152344-8.152344-8.152344zm0 0"/><path d="m51.539062 78.378906c-12.214843 0-22.152343-9.9375-22.152343-22.152344 0-12.214843 9.9375-22.152343 22.152343-22.152343 12.214844 0 22.152344 9.9375 22.152344 22.152343 0 12.214844-9.9375 22.152344-22.152344 22.152344zm0-30.304687c-4.492187 0-8.152343 3.660156-8.152343 8.152343 0 4.496094 3.660156 8.152344 8.152343 8.152344 4.496094 0 8.152344-3.65625 8.152344-8.152344 0-4.492187-3.65625-8.152343-8.152344-8.152343zm0 0"/><path d="m187.664062 78.804688c-12.210937 0-22.148437-9.9375-22.148437-22.152344 0-12.210938 9.9375-22.148438 22.148437-22.148438 12.214844 0 22.152344 9.9375 22.152344 22.148438 0 12.214844-9.9375 22.152344-22.152344 22.152344zm0-30.304688c-4.492187 0-8.148437 3.65625-8.148437 8.152344s3.65625 8.152344 8.148437 8.152344c4.496094 0 8.152344-3.65625 8.152344-8.152344s-3.65625-8.152344-8.152344-8.152344zm0 0"/></svg>