<svg fill="white" height="448pt" viewBox="-17 0 448 448.26" width="448pt" xmlns="http://www.w3.org/2000/svg"><path d="m371.835938 355.996094h-13.992188v-18.21875c0-4.9375-4.019531-8.957032-8.957031-8.957032h-283.773438c-4.9375 0-8.957031 4.019532-8.957031 8.957032v18.21875h-13.992188v-18.21875c0-12.652344 10.292969-22.949219 22.949219-22.949219h283.773438c12.65625 0 22.949219 10.296875 22.949219 22.949219zm0 0"/><path d="m200.003906 275.1875h13.992188v84.460938h-13.992188zm0 0"/><path d="m228.367188 448h-42.734376c-14.878906 0-26.984374-12.105469-26.984374-26.984375v-41.234375c0-14.878906 12.105468-26.984375 26.984374-26.984375h42.734376c14.878906 0 26.984374 12.105469 26.984374 26.984375v41.234375c0 14.878906-12.105468 26.984375-26.984374 26.984375zm-42.734376-81.210938c-7.164062 0-12.992187 5.828126-12.992187 12.992188v41.234375c0 7.164063 5.828125 12.992187 12.992187 12.992187h42.734376c7.164062 0 12.992187-5.828124 12.992187-12.992187v-41.234375c0-7.164062-5.828125-12.992188-12.992187-12.992188zm0 0"/><path d="m386.894531 448h-42.734375c-14.878906 0-26.984375-12.105469-26.984375-26.984375v-41.234375c0-14.878906 12.105469-26.984375 26.984375-26.984375h42.734375c14.878907 0 26.984375 12.105469 26.984375 26.984375v41.234375c0 14.878906-12.105468 26.984375-26.984375 26.984375zm-42.734375-81.210938c-7.164062 0-12.992187 5.828126-12.992187 12.992188v41.234375c0 7.164063 5.828125 12.992187 12.992187 12.992187h42.734375c7.164063 0 12.992188-5.828124 12.992188-12.992187v-41.234375c0-7.164062-5.828125-12.992188-12.992188-12.992188zm0 0"/><path d="m69.839844 448h-42.734375c-14.878907 0-26.984375-12.105469-26.984375-26.984375v-41.234375c0-14.878906 12.105468-26.984375 26.984375-26.984375h42.734375c14.878906 0 26.984375 12.105469 26.984375 26.984375v41.234375c0 14.878906-12.105469 26.984375-26.984375 26.984375zm-42.734375-81.210938c-7.164063 0-12.992188 5.828126-12.992188 12.992188v41.234375c0 7.164063 5.828125 12.992187 12.992188 12.992187h42.734375c7.164062 0 12.992187-5.828124 12.992187-12.992187v-41.234375c0-7.164062-5.828125-12.992188-12.992187-12.992188zm0 0"/><path d="m42.488281 420.527344c-1.765625 0-3.527343-.664063-4.886719-1.992188l-14.933593-14.578125c-2.761719-2.699219-2.816407-7.128906-.117188-9.890625 2.699219-2.765625 7.128907-2.816406 9.890625-.117187l10.046875 9.804687 22.011719-21.492187c2.765625-2.695313 7.191406-2.644531 9.890625.121093 2.699219 2.761719 2.648437 7.191407-.117187 9.890626l-26.898438 26.261718c-1.359375 1.328125-3.125 1.992188-4.886719 1.992188zm0 0"/><path d="m201.015625 420.527344c-1.765625 0-3.527344-.664063-4.886719-1.992188l-14.929687-14.578125c-2.765625-2.699219-2.820313-7.128906-.121094-9.890625 2.699219-2.765625 7.128906-2.816406 9.894531-.117187l10.042969 9.804687 22.011719-21.492187c2.765625-2.699219 7.191406-2.644531 9.894531.121093 2.695313 2.761719 2.644531 7.191407-.121094 9.890626l-26.898437 26.261718c-1.359375 1.328125-3.121094 1.992188-4.886719 1.992188zm0 0"/><path d="m359.542969 420.527344c-1.761719 0-3.527344-.664063-4.886719-1.992188l-14.929688-14.578125c-2.765624-2.699219-2.816406-7.128906-.117187-9.890625 2.699219-2.761718 7.128906-2.820312 9.894531-.117187l10.039063 9.804687 22.015625-21.492187c2.761718-2.699219 7.191406-2.644531 9.890625.121093 2.699219 2.761719 2.644531 7.191407-.121094 9.890626l-26.898437 26.261718c-1.355469 1.328125-3.121094 1.992188-4.886719 1.992188zm0 0"/><path d="m336.925781 277.316406h-259.851562c-14.878907 0-26.984375-12.105468-26.984375-26.984375v-223.347656c0-14.878906 12.105468-26.984375 26.984375-26.984375h259.851562c14.878907 0 26.984375 12.105469 26.984375 26.984375v223.347656c0 14.878907-12.105468 26.984375-26.984375 26.984375zm-259.851562-263.324218c-7.164063 0-12.992188 5.828124-12.992188 12.992187v223.347656c0 7.164063 5.828125 12.992188 12.992188 12.992188h259.851562c7.164063 0 12.992188-5.828125 12.992188-12.992188v-223.347656c0-7.164063-5.828125-12.992187-12.992188-12.992187zm0 0"/><path d="m356.914062 85.726562h-299.828124c-3.863282 0-6.996094-3.132812-6.996094-6.996093s3.132812-6.996094 6.996094-6.996094h299.828124c3.863282 0 6.996094 3.132813 6.996094 6.996094s-3.132812 6.996093-6.996094 6.996093zm0 0"/><path d="m139.429688 61.226562c-9.964844 0-18.074219-8.105468-18.074219-18.074218s8.109375-18.078125 18.074219-18.078125c9.96875 0 18.078124 8.109375 18.078124 18.078125s-8.109374 18.074218-18.078124 18.074218zm0-22.160156c-2.25 0-4.082032 1.832032-4.082032 4.085938s1.832032 4.085937 4.082032 4.085937c2.253906 0 4.085937-1.832031 4.085937-4.085937s-1.832031-4.085938-4.085937-4.085938zm0 0"/><path d="m89.65625 61.074219c-9.964844 0-18.074219-8.109375-18.074219-18.078125s8.109375-18.078125 18.074219-18.078125c9.96875 0 18.078125 8.109375 18.078125 18.078125s-8.109375 18.078125-18.078125 18.078125zm0-22.164063c-2.25 0-4.082031 1.832032-4.082031 4.085938s1.832031 4.085937 4.082031 4.085937c2.253906 0 4.085938-1.832031 4.085938-4.085937s-1.832032-4.085938-4.085938-4.085938zm0 0"/><path d="m189.203125 61.382812c-9.964844 0-18.074219-8.109374-18.074219-18.074218 0-9.96875 8.109375-18.078125 18.074219-18.078125 9.96875 0 18.078125 8.109375 18.078125 18.078125 0 9.964844-8.109375 18.074218-18.078125 18.074218zm0-22.160156c-2.25 0-4.082031 1.832032-4.082031 4.085938s1.832031 4.082031 4.082031 4.082031c2.253906 0 4.085937-1.828125 4.085937-4.082031s-1.832031-4.085938-4.085937-4.085938zm0 0"/></svg>