<svg fill="white" height="424pt" viewBox="0 -25 424 424" width="424pt" xmlns="http://www.w3.org/2000/svg"><path d="m152 234.042969c-3.867188 0-7-3.132813-7-7 0-32.164063 26.761719-66.601563 66.601562-66.601563 17.394532 0 31.992188 6.859375 42.75 15.769532l-.234374-9.375c-.097657-3.867188 2.957031-7.078126 6.820312-7.175782h.179688c3.785156 0 6.898437 3.019532 6.996093 6.824219l.667969 26.605469c.785156 2.832031-.285156 5.96875-2.867188 7.6875-1.75 1.167968-3.835937 1.445312-5.714843.933594l-26.640625-.671876c-3.867188-.097656-6.921875-3.308593-6.824219-7.175781.097656-3.863281 3.347656-6.925781 7.175781-6.820312l11.847656.296875c-8.550781-7.148438-20.316406-12.894532-34.15625-12.894532-34.324218 0-52.601562 30.546876-52.601562 52.601563 0 3.863281-3.132812 6.996094-7 6.996094zm0 0"/><path d="m162.875 294.425781c-3.785156 0-6.898438-3.019531-6.992188-6.824219l-.667968-26.621093c-.777344-2.828125.296875-5.957031 2.871094-7.671875 1.75-1.167969 3.832031-1.441406 5.71875-.929688l26.632812.667969c3.867188.097656 6.921875 3.3125 6.824219 7.175781-.097657 3.804688-3.210938 6.824219-6.996094 6.824219-.058594 0-.121094 0-.179687-.003906l-11.84375-.296875c8.554687 7.148437 20.320312 12.894531 34.15625 12.894531 34.324218 0 52.601562-30.546875 52.601562-52.601563 0-3.863281 3.132812-7 7-7s7 3.136719 7 7c0 32.164063-26.761719 66.601563-66.601562 66.601563-17.398438 0-31.996094-6.859375-42.757813-15.769531l.238281 9.378906c.09375 3.863281-2.957031 7.078125-6.824218 7.175781-.058594 0-.117188 0-.179688 0zm0 0"/><path d="m377 374.085938h-330c-25.914062 0-47-21.082032-47-47v-280.085938c0-25.914062 21.085938-47 47-47h330c25.914062 0 47 21.085938 47 47v280.085938c0 25.917968-21.085938 47-47 47zm-330-360.085938c-18.195312 0-33 14.804688-33 33v280.085938c0 18.195312 14.804688 33 33 33h330c18.195312 0 33-14.804688 33-33v-280.085938c0-18.195312-14.804688-33-33-33zm0 0"/><path d="m417 112.089844h-410c-3.867188 0-7-3.132813-7-7 0-3.863282 3.132812-7 7-7h410c3.867188 0 7 3.136718 7 7 0 3.867187-3.132812 7-7 7zm0 0"/><path d="m119.601562 78.59375c-12.210937 0-22.152343-9.941406-22.152343-22.152344 0-12.214844 9.941406-22.152344 22.152343-22.152344 12.214844 0 22.152344 9.9375 22.152344 22.152344 0 12.210938-9.9375 22.152344-22.152344 22.152344zm0-30.304688c-4.492187 0-8.152343 3.65625-8.152343 8.152344s3.660156 8.152344 8.152343 8.152344c4.496094 0 8.152344-3.65625 8.152344-8.152344s-3.65625-8.152344-8.152344-8.152344zm0 0"/><path d="m51.539062 78.378906c-12.214843 0-22.152343-9.9375-22.152343-22.152344 0-12.214843 9.9375-22.152343 22.152343-22.152343 12.214844 0 22.152344 9.9375 22.152344 22.152343 0 12.214844-9.9375 22.152344-22.152344 22.152344zm0-30.304687c-4.492187 0-8.152343 3.660156-8.152343 8.152343 0 4.496094 3.660156 8.152344 8.152343 8.152344 4.496094 0 8.152344-3.65625 8.152344-8.152344 0-4.492187-3.65625-8.152343-8.152344-8.152343zm0 0"/><path d="m187.664062 78.804688c-12.210937 0-22.148437-9.9375-22.148437-22.152344 0-12.210938 9.9375-22.148438 22.148437-22.148438 12.214844 0 22.152344 9.9375 22.152344 22.148438 0 12.214844-9.9375 22.152344-22.152344 22.152344zm0-30.304688c-4.492187 0-8.148437 3.65625-8.148437 8.152344s3.65625 8.152344 8.148437 8.152344c4.496094 0 8.152344-3.65625 8.152344-8.152344s-3.65625-8.152344-8.152344-8.152344zm0 0"/></svg>