<?xml version="1.0" encoding="UTF-8" standalone="no"?>
<svg
   xmlns:dc="http://purl.org/dc/elements/1.1/"
   xmlns:cc="http://creativecommons.org/ns#"
   xmlns:rdf="http://www.w3.org/1999/02/22-rdf-syntax-ns#"
   xmlns:svg="http://www.w3.org/2000/svg"
   xmlns="http://www.w3.org/2000/svg"
   xmlns:sodipodi="http://sodipodi.sourceforge.net/DTD/sodipodi-0.dtd"
   xmlns:inkscape="http://www.inkscape.org/namespaces/inkscape"
   id="Capa_1"
   enable-background="new 0 0 510.003 510.003"
   height="63"
   viewBox="0 0 62.754275 62.754275"
   width="63"
   version="1.1"
   sodipodi:docname="consulting.svg"
   inkscape:version="0.92.5 (2060ec1f9f, 2020-04-08)">
  <metadata
     id="metadata60">
    <rdf:RDF>
      <cc:Work
         rdf:about="">
        <dc:format>image/svg+xml</dc:format>
        <dc:type
           rdf:resource="http://purl.org/dc/dcmitype/StillImage" />
        <dc:title></dc:title>
      </cc:Work>
    </rdf:RDF>
  </metadata>
  <defs
     id="defs58" />
  <sodipodi:namedview
     pagecolor="#ffffff"
     bordercolor="#666666"
     borderopacity="1"
     objecttolerance="10"
     gridtolerance="10"
     guidetolerance="10"
     inkscape:pageopacity="0"
     inkscape:pageshadow="2"
     inkscape:window-width="1320"
     inkscape:window-height="731"
     id="namedview56"
     showgrid="false"
     inkscape:zoom="3.6875"
     inkscape:cx="41.481253"
     inkscape:cy="34.695898"
     inkscape:window-x="46"
     inkscape:window-y="0"
     inkscape:window-maximized="1"
     inkscape:current-layer="Capa_1" />
  <path
     inkscape:connector-curvature="0"
     d="M 54.213139,24.290653 V 22.834141 C 54.213139,10.212809 44.000704,-9.8017268e-4 31.378017,-9.8017268e-4 18.786708,-9.8017268e-4 8.5428956,10.242832 8.5428956,22.834141 v 1.456512 c -5.0086411,1.420335 -8.83479753,6.20343 -8.52447219,11.985301 0.33542699,6.248958 5.57748889,11.137259 11.74560459,11.137259 3.039638,0 5.504153,-2.453195 5.504153,-5.494678 v -12.58085 c 0,-2.879185 -2.220389,-5.253014 -5.033866,-5.47536 v -1.02806 c 0,-10.555861 8.587842,-19.1437025 19.143702,-19.1437025 10.581208,0 19.143702,8.5613865 19.143702,19.1437025 v 1.027691 c -2.810277,0.219393 -5.033866,2.594576 -5.033866,5.475852 v 12.58085 c 0,2.878815 2.210299,5.237017 5.033866,5.47376 0,4.995721 -3.911797,8.470208 -8.299541,8.470208 h -4.017741 c -0.738407,-1.87118 -2.563322,-3.19923 -4.693764,-3.19923 h -4.265558 c -2.781731,0 -5.04494,2.263209 -5.04494,5.04494 0,2.781731 2.263209,5.04494 5.04494,5.04494 h 4.265558 c 2.130442,0 3.955357,-1.32805 4.693764,-3.19923 h 4.017618 c 6.611824,0 11.990961,-5.379629 11.990961,-11.992192 v -0.60527 c 4.709636,-1.357458 8.251553,-5.593485 8.524472,-10.680507 0.309341,-5.76206 -3.498235,-10.559921 -8.524349,-11.985424 z m -40.636377,5.047032 v 12.58085 c 0,0.932452 -0.716874,1.825284 -1.955345,1.801782 -4.213879,-0.08269 -7.6914423,-3.439542 -7.9169881,-7.6421 -0.2511396,-4.677644 3.4536922,-8.543176 8.0806401,-8.543176 h 0.03162 c 0.970474,0.0037 1.760069,0.812359 1.760069,1.802644 z m 19.934034,29.724048 h -4.265558 c -0.746282,0 -1.35352,-0.607238 -1.35352,-1.35352 0,-0.746282 0.607238,-1.353521 1.35352,-1.353521 h 4.265558 c 0.747513,0 1.355244,0.609208 1.353398,1.357089 -0.0021,0.744683 -0.608346,1.349952 -1.353398,1.349952 z M 59.051483,36.078217 c -0.225546,4.202558 -3.703109,7.559412 -7.916865,7.6421 -1.215831,0.02461 -1.955468,-0.849396 -1.955468,-1.801782 v -12.58085 c 0,-0.990285 0.789595,-1.798952 1.753055,-1.802644 h 0.03851 c 4.627687,0 8.331903,3.866024 8.080764,8.543176 z"
     id="path51"
     style="stroke-width:0.12304732;fill:#5d78ff;fill-opacity:1" />
  <path
     inkscape:connector-curvature="0"
     d="m 32.683057,45.82824 8.522873,-8.522749 c 2.654992,-2.654992 2.655238,-6.952174 0,-9.607289 -2.442243,-2.442366 -6.674456,-2.931972 -9.827913,0.220501 -3.110636,-3.109775 -7.348755,-2.699781 -9.827912,-0.220624 -2.655115,2.655115 -2.655238,6.952174 0,9.607412 l 8.522872,8.522749 c 0.720566,0.720688 1.889269,0.720811 2.61008,0 z M 24.160185,30.308282 c 1.209432,-1.209309 3.177327,-1.209432 4.386883,0 l 1.525663,1.525664 c 0.720688,0.720811 1.889392,0.720811 2.610203,0 l 1.525664,-1.525664 c 1.209555,-1.209432 3.177328,-1.209555 4.386883,0 1.212262,1.212139 1.212508,3.174375 0,4.386883 l -7.21771,7.217586 -7.21771,-7.217586 c -1.212139,-1.212139 -1.212262,-3.174375 1.24e-4,-4.386883 z"
     id="path53"
     style="stroke-width:0.12304732;fill:#5d78ff;fill-opacity:1" />
</svg>
