<?xml version="1.0" encoding="UTF-8" standalone="no"?>
<svg
   xmlns:dc="http://purl.org/dc/elements/1.1/"
   xmlns:cc="http://creativecommons.org/ns#"
   xmlns:rdf="http://www.w3.org/1999/02/22-rdf-syntax-ns#"
   xmlns:svg="http://www.w3.org/2000/svg"
   xmlns="http://www.w3.org/2000/svg"
   xmlns:sodipodi="http://sodipodi.sourceforge.net/DTD/sodipodi-0.dtd"
   xmlns:inkscape="http://www.inkscape.org/namespaces/inkscape"
   id="Capa_1"
   enable-background="new 0 0 506.855 506.855"
   height="63"
   viewBox="0 0 62.366924 62.366924"
   width="63"
   version="1.1"
   sodipodi:docname="content-writer.svg"
   inkscape:version="0.92.5 (2060ec1f9f, 2020-04-08)">
  <metadata
     id="metadata87">
    <rdf:RDF>
      <cc:Work
         rdf:about="">
        <dc:format>image/svg+xml</dc:format>
        <dc:type
           rdf:resource="http://purl.org/dc/dcmitype/StillImage" />
        <dc:title />
      </cc:Work>
    </rdf:RDF>
  </metadata>
  <defs
     id="defs85" />
  <sodipodi:namedview
     pagecolor="#ffffff"
     bordercolor="#666666"
     borderopacity="1"
     objecttolerance="10"
     gridtolerance="10"
     guidetolerance="10"
     inkscape:pageopacity="0"
     inkscape:pageshadow="2"
     inkscape:window-width="1320"
     inkscape:window-height="731"
     id="namedview83"
     showgrid="false"
     inkscape:zoom="3.6875"
     inkscape:cx="42.407141"
     inkscape:cy="60.457807"
     inkscape:window-x="46"
     inkscape:window-y="0"
     inkscape:window-maximized="1"
     inkscape:current-layer="Capa_1" />
  <g
     id="g2009"
     transform="translate(-26.85406,-4.3968497e-6)"
     style="stroke:none;stroke-opacity:1;fill:#5d78ff;fill-opacity:1">
    <g
       transform="matrix(0.12304688,0,0,0.12304688,26.854059,3.2156497e-6)"
       id="g1996"
       style="stroke:none;stroke-opacity:1;fill:#5d78ff;fill-opacity:1">
      <path
         inkscape:connector-curvature="0"
         d="M 353.052,59.866 H 282.416 C 277.549,26.064 248.406,0 213.277,0 h -12.88 C 165.269,0 136.125,26.064 131.258,59.866 H 60.622 c -16.542,0 -30,13.458 -30,30 v 386.989 c 0,16.542 13.458,30 30,30 h 292.431 c 16.542,0 30,-13.458 30,-30 V 89.866 c -10e-4,-16.542 -13.459,-30 -30.001,-30 z M 200.397,20 h 12.88 c 24.073,0 44.216,17.145 48.859,39.866 H 151.538 C 156.181,37.145 176.324,20 200.397,20 Z m 152.655,59.866 c 5.514,0 10,4.486 10,10 v 386.989 c 0,5.514 -4.486,10 -10,10 H 60.622 c -5.514,0 -10,-4.486 -10,-10 V 89.866 c 0,-5.514 4.486,-10 10,-10 z"
         id="path62"
         style="stroke:none;stroke-opacity:1;fill:#5d78ff;fill-opacity:1" />
      <path
         inkscape:connector-curvature="0"
         d="M 317.52,106.178 H 96.154 c -5.523,0 -10,4.477 -10,10 v 89.546 c 0,5.523 4.477,10 10,10 H 317.52 c 5.523,0 10,-4.477 10,-10 v -89.546 c 0,-5.523 -4.477,-10 -10,-10 z m -10,89.546 H 106.154 V 126.178 H 307.52 Z"
         id="path64"
         style="stroke:none;stroke-opacity:1;fill:#5d78ff;fill-opacity:1" />
      <path
         inkscape:connector-curvature="0"
         d="m 99.147,264.631 h 107.69 c 12.84,0 12.859,-20 0,-20 H 99.147 c -12.841,0 -12.859,20 0,20 z"
         id="path66"
         style="stroke:none;stroke-opacity:1;fill:#5d78ff;fill-opacity:1" />
      <path
         inkscape:connector-curvature="0"
         d="m 317.52,437.272 h -58.193 c -12.84,0 -12.859,20 0,20 h 58.193 c 12.811,0 12.836,-20 0,-20 z"
         id="path68"
         style="stroke:none;stroke-opacity:1;fill:#5d78ff;fill-opacity:1" />
      <path
         inkscape:connector-curvature="0"
         d="M 317.52,292.792 H 99.147 c -12.84,0 -12.859,20 0,20 H 317.52 c 12.811,0 12.836,-20 0,-20 z"
         id="path70"
         style="stroke:none;stroke-opacity:1;fill:#5d78ff;fill-opacity:1" />
      <path
         inkscape:connector-curvature="0"
         d="M 317.52,340.952 H 99.147 c -12.84,0 -12.859,20 0,20 H 317.52 c 12.811,0 12.836,-20 0,-20 z"
         id="path72"
         style="stroke:none;stroke-opacity:1;fill:#5d78ff;fill-opacity:1" />
      <path
         inkscape:connector-curvature="0"
         d="M 317.52,389.112 H 99.147 c -12.84,0 -12.859,20 0,20 H 317.52 c 12.811,0 12.836,-20 0,-20 z"
         id="path74"
         style="stroke:none;stroke-opacity:1;fill:#5d78ff;fill-opacity:1" />
      <path
         inkscape:connector-curvature="0"
         d="m 476.233,189.02 c 0,-20.44 -16.629,-37.069 -37.069,-37.069 -20.44,0 -37.069,16.629 -37.069,37.069 v 69.384 c 0,12.84 20,12.859 20,0 v -16.541 h 34.139 v 181.798 h -34.139 v -84.316 c 0,-12.84 -20,-12.859 -20,0 v 94.316 c 0,1.349 0.81,2.699 0.81,3.943 l 27.069,63.096 c 3.346,7.799 14.993,7.893 18.38,0 l 27.069,-63.096 c 0,-1.243 0.81,-2.594 0.81,-3.943 z m -54.139,32.843 V 189.02 c 0,-9.412 7.657,-17.069 17.069,-17.069 9.412,0 17.069,7.657 17.069,17.069 v 32.843 z m 17.07,249.53 -11.897,-27.732 h 23.795 z"
         id="path76"
         style="stroke:none;stroke-opacity:1;fill:#5d78ff;fill-opacity:1" />
      <path
         inkscape:connector-curvature="0"
         d="m 402.863,302.58 c 1.635,3.925 5.708,6.477 9.964,6.148 4.349,-0.336 8.056,-3.521 9.021,-7.779 1.973,-8.708 -8.196,-15.526 -15.508,-10.366 -3.773,2.663 -5.257,7.724 -3.477,11.997 z"
         id="path78"
         style="stroke:none;stroke-opacity:1;fill:#5d78ff;fill-opacity:1" />
      <path
         inkscape:connector-curvature="0"
         d="m 228.323,443.45 c -2.065,-5.039 -8.04,-7.494 -13.06,-5.41 -5.032,2.088 -7.497,8.021 -5.41,13.06 2.082,5.029 8.031,7.497 13.06,5.41 5.02,-2.084 7.504,-8.032 5.41,-13.06 z"
         id="path80"
         style="stroke:none;stroke-opacity:1;fill:#5d78ff;fill-opacity:1" />
    </g>
  </g>
</svg>
