<?xml version="1.0" encoding="UTF-8" standalone="no"?>
<svg
   xmlns:dc="http://purl.org/dc/elements/1.1/"
   xmlns:cc="http://creativecommons.org/ns#"
   xmlns:rdf="http://www.w3.org/1999/02/22-rdf-syntax-ns#"
   xmlns:svg="http://www.w3.org/2000/svg"
   xmlns="http://www.w3.org/2000/svg"
   xmlns:sodipodi="http://sodipodi.sourceforge.net/DTD/sodipodi-0.dtd"
   xmlns:inkscape="http://www.inkscape.org/namespaces/inkscape"
   id="Capa_1"
   enable-background="new 0 0 512 512"
   height="63"
   viewBox="0 0 63 63"
   width="63"
   version="1.1"
   sodipodi:docname="web-development.svg"
   inkscape:version="0.92.5 (2060ec1f9f, 2020-04-08)">
  <metadata
     id="metadata18">
    <rdf:RDF>
      <cc:Work
         rdf:about="">
        <dc:format>image/svg+xml</dc:format>
        <dc:type
           rdf:resource="http://purl.org/dc/dcmitype/StillImage" />
        <dc:title></dc:title>
      </cc:Work>
    </rdf:RDF>
  </metadata>
  <defs
     id="defs16" />
  <sodipodi:namedview
     pagecolor="#ffffff"
     bordercolor="#666666"
     borderopacity="1"
     objecttolerance="10"
     gridtolerance="10"
     guidetolerance="10"
     inkscape:pageopacity="0"
     inkscape:pageshadow="2"
     inkscape:window-width="1320"
     inkscape:window-height="731"
     id="namedview14"
     showgrid="false"
     inkscape:zoom="2.6074563"
     inkscape:cx="93.388608"
     inkscape:cy="56.692562"
     inkscape:window-x="46"
     inkscape:window-y="0"
     inkscape:window-maximized="1"
     inkscape:current-layer="Capa_1" />
  <g
     id="g839"
     style="fill:#5d78ff;fill-opacity:1">
    <path
       style="stroke-width:0.12304688;fill:#5d78ff;fill-opacity:1"
       inkscape:connector-curvature="0"
       d="M 59.308594,9.84375 H 56.355469 V 3.69141 C 56.355469,1.65596 54.699504,0 52.664062,0 H 10.335938 C 8.3004961,0 6.6445312,1.65596 6.6445312,3.69141 V 9.84375 H 3.6914063 C 1.6559648,9.84375 0,11.49971 0,13.53516 v 35.43725 c 0,2.03544 1.6559648,3.69141 3.6914063,3.69141 H 25.347656 v 2.95288 h -2.340844 c -2.035441,0 -3.691406,1.65596 -3.691406,3.6914 v 2.46143 c 0,0.67959 0.550881,1.23047 1.230469,1.23047 h 21.908373 c 0.679588,0 1.230469,-0.55088 1.230469,-1.23047 V 59.3081 c 0,-2.03544 -1.655965,-3.6914 -3.691406,-3.6914 h -2.340967 v -2.95288 h 21.65625 C 61.344035,52.66382 63,51.00785 63,48.97241 V 13.53516 C 63,11.49971 61.344035,9.84375 59.308594,9.84375 Z m 0,2.46094 c 0.67848,0 1.230468,0.55199 1.230468,1.23047 v 28.30053 h -4.183593 v -29.531 z M 10.335938,2.46094 h 42.328124 c 0.678481,0 1.230469,0.55199 1.230469,1.23047 V 9.84375 H 9.1054688 V 3.69141 c 0,-0.67848 0.5519882,-1.23047 1.2304692,-1.23047 z m -6.6445317,9.84375 h 2.9531249 v 9.22728 c 0,0.67959 0.5508809,1.23047 1.2304688,1.23047 0.6795879,0 1.2304688,-0.55088 1.2304688,-1.23047 V 12.30469 H 53.894531 v 29.531 h -6.27539 V 37.7808 c 0,-0.67958 -0.550881,-1.23046 -1.230469,-1.23046 H 44.787709 C 44.506301,35.58146 44.12018,34.65 43.63316,33.76492 l 1.132647,-1.13252 c 0.480498,-0.4805 0.480498,-1.25963 0,-1.74025 l -3.735703,-3.7357 c -0.480499,-0.48038 -1.259631,-0.48038 -1.740252,0 l -1.132524,1.13264 C 37.272375,27.80207 36.340787,27.41595 35.371916,27.13467 V 25.5337 c 0,-0.67958 -0.550881,-1.23047 -1.230469,-1.23047 h -5.28314 c -0.679588,0 -1.230469,0.55089 -1.230469,1.23047 v 1.60097 c -0.968871,0.2814 -1.900336,0.6674 -2.785412,1.15442 l -1.132524,-1.13264 c -0.480498,-0.48038 -1.259631,-0.48038 -1.740252,0 l -3.735703,3.7357 c -0.480498,0.4805 -0.480498,1.25963 0,1.74025 l 1.132647,1.13252 c -0.48702,0.88496 -0.873141,1.81654 -1.154549,2.78542 h -1.600717 c -0.679588,0 -1.230469,0.55088 -1.230469,1.23046 v 4.05489 H 9.1054687 v -9.2295 c 0,-0.67959 -0.5508808,-1.23047 -1.2304687,-1.23047 -0.6795879,0 -1.2304688,0.55088 -1.2304688,1.23047 v 9.2295 H 2.4609375 V 13.53516 c 0,-0.67848 0.5519883,-1.23047 1.2304688,-1.23047 z m 18.0934277,20.39797 -0.940447,-0.94045 1.995574,-1.99557 0.940447,0.94045 c 0.410608,0.41036 1.052297,0.47816 1.539563,0.16229 1.164392,-0.75501 2.44125,-1.28424 3.795134,-1.5729 0.567985,-0.12108 0.973916,-0.62274 0.973916,-1.2034 v -1.32915 h 2.822204 v 1.32915 c 0,0.58066 0.405931,1.08232 0.973916,1.2034 1.353761,0.28866 2.630619,0.81777 3.795134,1.5729 0.487266,0.31587 1.128955,0.24819 1.539563,-0.16229 l 0.940447,-0.94045 1.995574,1.99557 -0.940447,0.94045 c -0.410484,0.41061 -0.478283,1.0523 -0.162299,1.53956 0.755016,1.16452 1.284241,2.44138 1.572908,3.79514 0.121079,0.56786 0.622741,0.97391 1.203399,0.97391 h 1.328783 v 2.82442 h -7.671111 c 0.109512,-0.46142 0.16599,-0.93565 0.16599,-1.41332 0,-3.39289 -2.760311,-6.15308 -6.153082,-6.15308 -3.392771,0 -6.153082,2.76031 -6.153082,6.15308 0,0.47767 0.05648,0.9519 0.16599,1.41332 h -7.671111 v -2.82442 h 1.329029 c 0.580658,0 1.08232,-0.40593 1.203399,-0.97391 0.288668,-1.35389 0.817892,-2.63074 1.572908,-3.79514 0.315984,-0.48714 0.248308,-1.12895 -0.162299,-1.53956 z m 6.023021,7.71971 c 0,-2.03581 1.656211,-3.69214 3.692145,-3.69214 2.035934,0 3.692145,1.65633 3.692145,3.69214 0,0.48592 -0.09831,0.96592 -0.284977,1.41332 h -6.814336 c -0.186662,-0.4474 -0.284977,-0.9274 -0.284977,-1.41332 z M 41.223656,59.3081 v 1.23096 H 21.776344 V 59.3081 c 0,-0.67848 0.551988,-1.23047 1.230468,-1.23047 h 16.986499 c 0.67848,0 1.230345,0.55199 1.230345,1.23047 z m -6.03225,-3.6914 h -7.382812 v -2.95288 h 7.382812 z M 59.308594,50.20288 H 3.6914063 c -0.6784805,0 -1.2304688,-0.55199 -1.2304688,-1.23047 V 44.29663 H 60.539062 v 4.67578 c 0,0.67848 -0.551988,1.23047 -1.230468,1.23047 z"
       id="XMLID_294_" />
    <path
       style="stroke-width:0.12304688;fill:#5d78ff;fill-opacity:1"
       inkscape:connector-curvature="0"
       d="m 35.191406,7.38281 h 13.289063 c 0.679588,0 1.230468,-0.55088 1.230468,-1.23047 0,-0.67958 -0.55088,-1.23047 -1.230468,-1.23047 H 35.191406 c -0.679588,0 -1.230469,0.55089 -1.230469,1.23047 0,0.67959 0.550881,1.23047 1.230469,1.23047 z"
       id="XMLID_1617_" />
    <path
       style="stroke-width:0.12304688;fill:#5d78ff;fill-opacity:1"
       inkscape:connector-curvature="0"
       d="m 19.933594,7.38281 c 0.323613,0 0.641074,-0.13166 0.869941,-0.36052 0.228867,-0.22887 0.360527,-0.54633 0.360527,-0.86995 0,-0.32361 -0.13166,-0.64107 -0.360527,-0.86994 -0.228867,-0.22886 -0.546328,-0.36053 -0.869941,-0.36053 -0.323614,0 -0.641074,0.13167 -0.869942,0.36053 -0.228867,0.22887 -0.360527,0.54633 -0.360527,0.86994 0,0.32362 0.13166,0.64108 0.360527,0.86995 0.228868,0.22886 0.546328,0.36052 0.869942,0.36052 z"
       id="XMLID_1618_" />
    <path
       style="stroke-width:0.12304688;fill:#5d78ff;fill-opacity:1"
       inkscape:connector-curvature="0"
       d="m 14.519531,7.38281 c 0.323614,0 0.641074,-0.13166 0.869942,-0.36052 C 15.61834,6.79342 15.75,6.47596 15.75,6.15234 15.75,5.82873 15.61834,5.51127 15.389473,5.2824 15.160605,5.05354 14.843145,4.92187 14.519531,4.92187 c -0.323613,0 -0.641074,0.13167 -0.869941,0.36053 -0.228867,0.22887 -0.360527,0.54633 -0.360527,0.86994 0,0.32362 0.13166,0.64108 0.360527,0.86995 0.228867,0.22886 0.546328,0.36052 0.869941,0.36052 z"
       id="XMLID_1620_" />
    <path
       style="stroke-width:0.12304688;fill:#5d78ff;fill-opacity:1"
       inkscape:connector-curvature="0"
       d="m 25.347656,7.38281 c 0.323614,0 0.641074,-0.13166 0.869942,-0.36052 0.228867,-0.22887 0.360527,-0.54633 0.360527,-0.86995 0,-0.32361 -0.13166,-0.64107 -0.360527,-0.86994 C 25.98873,5.05354 25.67127,4.92187 25.347656,4.92187 c -0.323613,0 -0.641074,0.13167 -0.869941,0.36053 -0.228867,0.22887 -0.360528,0.54633 -0.360528,0.86994 0,0.32362 0.131661,0.64108 0.360528,0.86995 0.228867,0.22886 0.546328,0.36052 0.869941,0.36052 z"
       id="XMLID_1623_" />
    <path
       style="stroke-width:0.12304688;fill:#5d78ff;fill-opacity:1"
       inkscape:connector-curvature="0"
       d="m 13.78125,18.21069 h 2.92827 c 0.679587,0 1.230468,-0.55088 1.230468,-1.23047 0,-0.67959 -0.550881,-1.23047 -1.230468,-1.23047 h -2.92827 c -0.679588,0 -1.230469,0.55088 -1.230469,1.23047 0,0.67959 0.550881,1.23047 1.230469,1.23047 z"
       id="XMLID_1624_" />
    <path
       style="stroke-width:0.12304688;fill:#5d78ff;fill-opacity:1"
       inkscape:connector-curvature="0"
       d="m 22.123582,18.21069 h 11.288074 c 0.679588,0 1.230469,-0.55088 1.230469,-1.23047 0,-0.67959 -0.550881,-1.23047 -1.230469,-1.23047 H 22.123582 c -0.679588,0 -1.230469,0.55088 -1.230469,1.23047 0,0.67959 0.550881,1.23047 1.230469,1.23047 z"
       id="XMLID_1626_" />
    <path
       style="stroke-width:0.12304688;fill:#5d78ff;fill-opacity:1"
       inkscape:connector-curvature="0"
       d="m 13.78125,24.1167 h 7.136719 c 0.679588,0 1.230468,-0.55089 1.230468,-1.23047 0,-0.67959 -0.55088,-1.23047 -1.230468,-1.23047 H 13.78125 c -0.679588,0 -1.230469,0.55088 -1.230469,1.23047 0,0.67958 0.550881,1.23047 1.230469,1.23047 z"
       id="XMLID_1627_" />
    <path
       style="stroke-width:0.12304688;fill:#5d78ff;fill-opacity:1"
       inkscape:connector-curvature="0"
       d="M 38.825719,18.21069 H 49.21875 c 0.679588,0 1.230469,-0.55088 1.230469,-1.23047 0,-0.67959 -0.550881,-1.23047 -1.230469,-1.23047 H 38.825719 c -0.679588,0 -1.230469,0.55088 -1.230469,1.23047 0,0.67959 0.550881,1.23047 1.230469,1.23047 z"
       id="XMLID_1628_" />
    <path
       style="stroke-width:0.12304688;fill:#5d78ff;fill-opacity:1"
       inkscape:connector-curvature="0"
       d="m 49.21875,21.65576 h -8.421205 c -0.679588,0 -1.230469,0.55088 -1.230469,1.23047 0,0.67958 0.550881,1.23047 1.230469,1.23047 h 8.421205 c 0.679588,0 1.230469,-0.55089 1.230469,-1.23047 0,-0.67959 -0.550881,-1.23047 -1.230469,-1.23047 z"
       id="XMLID_1633_" />
    <path
       style="stroke-width:0.12304688;fill:#5d78ff;fill-opacity:1"
       inkscape:connector-curvature="0"
       d="m 7.875,28.29955 c 0.3236133,0 0.6410742,-0.13166 0.8699414,-0.36053 0.2288672,-0.22886 0.3605274,-0.54632 0.3605274,-0.86994 0,-0.32361 -0.1316602,-0.64107 -0.3605274,-0.86994 C 8.5160742,25.97027 8.1986133,25.83861 7.875,25.83861 c -0.3236133,0 -0.6410742,0.13166 -0.8699414,0.36053 -0.2288672,0.22887 -0.3605274,0.54633 -0.3605274,0.86994 0,0.32362 0.1316602,0.64108 0.3605274,0.86994 0.2288672,0.22887 0.5463281,0.36053 0.8699414,0.36053 z"
       id="XMLID_1635_" />
  </g>
</svg>
