<?xml version="1.0" encoding="UTF-8"?>
<svg xmlns="http://www.w3.org/2000/svg" xmlns:xlink="http://www.w3.org/1999/xlink" width="12pt" height="10pt" viewBox="0 0 12 10" version="1.1">
<g id="surface1">
<path style=" stroke:none;fill-rule:nonzero;fill:rgb(11.764706%,56.470588%,100%);fill-opacity:1;" d="M 5.292969 6.46875 C 5.105469 6.46875 4.929688 6.40625 4.796875 6.296875 L 3.738281 5.414062 C 3.460938 5.183594 3.460938 4.8125 3.738281 4.582031 C 4.011719 4.351562 4.460938 4.351562 4.738281 4.582031 L 5.332031 5.078125 L 7.304688 3.671875 C 7.628906 3.488281 8.066406 3.5625 8.285156 3.832031 C 8.464844 4.054688 8.441406 4.351562 8.222656 4.554688 L 5.753906 6.316406 C 5.625 6.414062 5.464844 6.46875 5.292969 6.46875 Z M 5.292969 6.46875 "/>
<path style=" stroke:none;fill-rule:nonzero;fill:rgb(8.627451%,42.352941%,74.901961%);fill-opacity:1;" d="M 6 10 C 2.6875 10 0 7.761719 0 5 C 0 2.238281 2.6875 0 6 0 C 9.3125 0 12 2.238281 12 5 C 12 7.761719 9.3125 10 6 10 Z M 6 1.175781 C 3.464844 1.175781 1.410156 2.886719 1.410156 5 C 1.410156 7.113281 3.464844 8.824219 6 8.824219 C 8.535156 8.824219 10.589844 7.113281 10.589844 5 C 10.589844 2.886719 8.535156 1.175781 6 1.175781 Z M 6 1.175781 "/>
</g>
</svg>
