<?xml version="1.0" encoding="UTF-8" standalone="no"?>
<!-- Created with Inkscape (http://www.inkscape.org/) -->

<svg
   xmlns:dc="http://purl.org/dc/elements/1.1/"
   xmlns:cc="http://creativecommons.org/ns#"
   xmlns:rdf="http://www.w3.org/1999/02/22-rdf-syntax-ns#"
   xmlns:svg="http://www.w3.org/2000/svg"
   xmlns="http://www.w3.org/2000/svg"
   xmlns:sodipodi="http://sodipodi.sourceforge.net/DTD/sodipodi-0.dtd"
   xmlns:inkscape="http://www.inkscape.org/namespaces/inkscape"
   width="210mm"
   height="297mm"
   viewBox="0 0 210 297"
   version="1.1"
   id="svg1642"
   inkscape:version="0.92.4 (5da689c313, 2019-01-14)"
   sodipodi:docname="LogoKukodeTextBlackSideMepet.svg">
  <defs
     id="defs1636" />
  <sodipodi:namedview
     id="base"
     pagecolor="#ffffff"
     bordercolor="#666666"
     borderopacity="1.0"
     inkscape:pageopacity="0.0"
     inkscape:pageshadow="2"
     inkscape:zoom="1.4"
     inkscape:cx="382.21412"
     inkscape:cy="558.85974"
     inkscape:document-units="mm"
     inkscape:current-layer="layer1"
     showgrid="false"
     inkscape:window-width="1366"
     inkscape:window-height="745"
     inkscape:window-x="-8"
     inkscape:window-y="-8"
     inkscape:window-maximized="1" />
  <metadata
     id="metadata1639">
    <rdf:RDF>
      <cc:Work
         rdf:about="">
        <dc:format>image/svg+xml</dc:format>
        <dc:type
           rdf:resource="http://purl.org/dc/dcmitype/StillImage" />
        <dc:title></dc:title>
      </cc:Work>
    </rdf:RDF>
  </metadata>
  <g
     inkscape:label="Layer 1"
     inkscape:groupmode="layer"
     id="layer1">
    <g
       id="g2131"
       transform="translate(-2618.9636,-292.69998)"
       inkscape:export-filename="F:\Logo\kukode.in\kukodetextsamping_png.png"
       inkscape:export-xdpi="96"
       inkscape:export-ydpi="96">
      <g
         style="stroke:none"
         id="g2121">
        <path
           style="opacity:1;vector-effect:none;fill:#00648a;fill-opacity:1;fill-rule:evenodd;stroke:none;stroke-width:5.6692915;stroke-linecap:round;stroke-linejoin:round;stroke-miterlimit:4;stroke-dasharray:none;stroke-dashoffset:0;stroke-opacity:1;paint-order:stroke fill markers"
           d="m 10121.035,1519.5547 c -1.151,0 -2.319,0.4541 -3.187,1.3223 l -16.373,16.373 c -1.738,1.7374 -1.738,4.6239 0,6.3613 l 42.66,42.6602 a 2.1880883,2.1880883 0 0 0 3.092,0 l 15.812,-15.8047 2.199,-2.1992 1.639,-1.6387 a 2.1880883,2.1880883 0 0 0 0,-3.0937 l -42.66,-42.6582 c -0.868,-0.8684 -2.03,-1.3223 -3.182,-1.3223 z"
           transform="matrix(0.26458333,0,0,0.26458333,0,11.249983)"
           id="path2117"
           inkscape:connector-curvature="0" />
        <path
           id="path2119"
           d="m 2695.161,431.7944 c 0.4596,-0.45968 0.46,-1.22508 0,-1.68476 l -3.0536,-3.05357 -1.2786,-1.27863 -0.8427,-0.84263 -0.8426,0.84263 -0.5825,0.58246 -15.8791,15.87917 c -0.4597,0.45968 -0.4596,1.2255 10e-5,1.68518 l 4.3322,4.3322 c 0.2298,0.22984 0.5361,0.34469 0.8424,0.34461 l 10e-5,9e-5 c 0.3063,-6e-5 0.6127,-0.1152 0.8425,-0.34504 z"
           style="opacity:1;vector-effect:none;fill:#00aeef;fill-opacity:1;fill-rule:evenodd;stroke:none;stroke-width:1.5;stroke-linecap:round;stroke-linejoin:round;stroke-miterlimit:4;stroke-dasharray:none;stroke-dashoffset:0;stroke-opacity:1;paint-order:stroke fill markers"
           inkscape:connector-curvature="0" />
      </g>
      <path
         inkscape:export-ydpi="96"
         inkscape:export-xdpi="96"
         inkscape:connector-curvature="0"
         id="path2123"
         d="m 2667.6765,423.0323 a 7.9198103,7.9198103 0 0 0 -2.9474,0.57298 c 0.118,0.19809 0.1781,0.41932 0.1781,0.6646 0,0.37765 -0.1399,0.70638 -0.4197,0.98613 -0.2658,0.26575 -0.5875,0.39846 -0.9651,0.39846 -0.3777,0 -0.7064,-0.13271 -0.9862,-0.39846 -0.056,-0.0593 -0.1053,-0.12137 -0.1497,-0.18511 a 7.9198103,7.9198103 0 0 0 -2.6298,5.88123 7.9198103,7.9198103 0 0 0 2.6957,5.94368 v -8.30398 c 0,-0.3217 0.098,-0.58048 0.2937,-0.7763 0.2098,-0.19582 0.4686,-0.29364 0.7763,-0.29364 0.3217,0 0.5804,0.0978 0.7763,0.29364 0.1958,0.19582 0.2936,0.4546 0.2936,0.7763 v 0.22339 c 0.3115,-0.30637 0.6679,-0.56988 1.07,-0.78986 0.7413,-0.40562 1.5735,-0.60847 2.4967,-0.60847 0.9651,0 1.8254,0.20986 2.5807,0.62947 0.7693,0.40562 1.3707,1.00698 1.8042,1.80423 0.4477,0.79726 0.6715,1.77645 0.6715,2.93737 v 3.82294 a 7.9198103,7.9198103 0 0 0 2.3809,-5.65877 7.9198103,7.9198103 0 0 0 -7.9198,-7.91983 z m 0.063,6.31483 c -0.5874,0 -1.119,0.11887 -1.5946,0.35664 -0.4755,0.23778 -0.8532,0.5595 -1.1329,0.96513 -0.2797,0.39163 -0.4197,0.84625 -0.4197,1.36376 v 5.91636 c 0,0.0994 -0.011,0.19313 -0.032,0.28231 a 7.9198103,7.9198103 0 0 0 3.1159,0.64063 7.9198103,7.9198103 0 0 0 3.4074,-0.77872 c 0,-0.0469 -0.01,-0.0947 -0.01,-0.14422 v -5.16106 c 0,-0.79726 -0.1469,-1.44771 -0.4407,-1.95124 -0.2937,-0.50354 -0.6922,-0.87416 -1.1957,-1.11195 -0.4896,-0.25176 -1.056,-0.37764 -1.6994,-0.37764 z"
         style="opacity:1;vector-effect:none;fill:#001821;fill-opacity:1;fill-rule:evenodd;stroke:none;stroke-width:1.5;stroke-linecap:round;stroke-linejoin:miter;stroke-miterlimit:4;stroke-dasharray:none;stroke-dashoffset:0;stroke-opacity:1;paint-order:stroke fill markers" />
      <g
         id="g2129"
         style="stroke:none;stroke-width:1000;stroke-miterlimit:4;stroke-dasharray:none">
        <path
           id="path2125"
           transform="matrix(0.26458333,0,0,0.26458333,0,11.249983)"
           d="m 10019.402,1585.6367 a 2.1880883,2.1880883 0 0 0 -1.521,0.6426 l -15.805,15.8047 -2.199,2.1992 -1.6387,1.6387 a 2.1880883,2.1880883 0 0 0 0,3.0937 l 42.6597,42.6602 c 1.738,1.7372 4.626,1.7374 6.364,0 l 16.373,-16.3731 c 1.737,-1.7374 1.737,-4.6258 0,-6.3632 l -42.653,-42.6602 a 2.1880883,2.1880883 0 0 0 -1.58,-0.6426 z"
           style="opacity:1;vector-effect:none;fill:#00648a;fill-opacity:1;fill-rule:evenodd;stroke:none;stroke-width:3779.52758789;stroke-linecap:round;stroke-linejoin:round;stroke-miterlimit:4;stroke-dasharray:none;stroke-dashoffset:0;stroke-opacity:1;paint-order:stroke fill markers"
           inkscape:connector-curvature="0" />
        <path
           id="path2127"
           d="m 2640.192,430.10986 c -0.4596,0.45968 -0.46,1.22508 0,1.68476 l 3.0536,3.05357 1.2786,1.27863 0.8427,0.84263 0.8426,-0.84263 0.5825,-0.58246 15.8791,-15.87917 c 0.4597,-0.45968 0.4596,-1.2255 -1e-4,-1.68518 l -4.3322,-4.3322 c -0.2298,-0.22984 -0.5361,-0.34469 -0.8424,-0.34461 l -1e-4,-9e-5 c -0.3063,6e-5 -0.6127,0.1152 -0.8425,0.34504 z"
           style="opacity:1;vector-effect:none;fill:#00aeef;fill-opacity:1;fill-rule:evenodd;stroke:none;stroke-width:1000;stroke-linecap:round;stroke-linejoin:round;stroke-miterlimit:4;stroke-dasharray:none;stroke-dashoffset:0;stroke-opacity:1;paint-order:stroke fill markers"
           inkscape:connector-curvature="0" />
      </g>
    </g>
    <g
       id="g2151"
       style="font-style:normal;font-variant:normal;font-weight:normal;font-stretch:normal;font-size:24.02951813px;line-height:1.25;font-family:Comfortaa;-inkscape-font-specification:Comfortaa;font-variant-ligatures:normal;font-variant-caps:normal;font-variant-numeric:normal;font-feature-settings:normal;text-align:center;letter-spacing:0px;word-spacing:0px;writing-mode:lr-tb;text-anchor:middle;fill:#001821;fill-opacity:1;stroke:none;stroke-width:0.75092244"
       aria-label="kukode.in"
       transform="matrix(0.89618257,0,0,0.89618257,0.82499167,-68.19383)"
       inkscape:export-filename="F:\Logo\kukode.in\kukodetextsamping_png.png"
       inkscape:export-xdpi="96"
       inkscape:export-ydpi="96">
      <path
         id="path2133"
         style="font-style:normal;font-variant:normal;font-weight:bold;font-stretch:normal;font-family:Comfortaa;-inkscape-font-specification:'Comfortaa Bold';fill:#001821;fill-opacity:1;stroke-width:0.75092244"
         d="m 87.251552,234.74451 -1.48983,-1.63401 7.377062,-6.58408 q 0.360443,-0.33642 0.792974,-0.31239 0.456561,0.024 0.768945,0.38447 0.336413,0.36045 0.312383,0.79298 -0.02403,0.43253 -0.384472,0.76894 z m -1.129387,4.80591 q -0.52865,0 -0.865063,-0.31239 -0.312384,-0.33641 -0.312384,-0.86506 v -16.41216 q 0,-0.52865 0.312384,-0.84104 0.336413,-0.33641 0.865063,-0.33641 0.528649,0 0.841033,0.33641 0.336413,0.31239 0.336413,0.84104 v 16.41216 q 0,0.52865 -0.336413,0.86506 -0.312384,0.31239 -0.841033,0.31239 z m 8.578538,-0.12015 q -0.384473,0.31238 -0.865063,0.26432 -0.456561,-0.024 -0.768945,-0.4085 l -4.877992,-6.03141 1.682067,-1.58595 4.998139,6.15156 q 0.312384,0.38447 0.264325,0.84103 -0.02403,0.43253 -0.432531,0.76895 z"
         inkscape:connector-curvature="0" />
      <path
         id="path2135"
         style="font-style:normal;font-variant:normal;font-weight:bold;font-stretch:normal;font-family:Comfortaa;-inkscape-font-specification:'Comfortaa Bold';fill:#001821;fill-opacity:1;stroke-width:0.75092244"
         d="m 104.12891,239.67056 q -1.65804,0 -2.97966,-0.69685 -1.297595,-0.72089 -2.066539,-2.09057 -0.744915,-1.36968 -0.744915,-3.36413 v -5.91127 q 0,-0.52864 0.336413,-0.86506 0.360443,-0.36044 0.889092,-0.36044 0.528649,0 0.865059,0.36044 0.36045,0.33642 0.36045,0.86506 v 5.91127 q 0,1.34565 0.50462,2.23474 0.50462,0.86506 1.36968,1.2976 0.86506,0.4085 1.94639,0.4085 1.03327,0 1.82624,-0.4085 0.81701,-0.40851 1.2976,-1.10536 0.48059,-0.69686 0.48059,-1.56192 h 1.51386 q 0,1.48983 -0.74492,2.6913 -0.72088,1.20148 -1.99445,1.89834 -1.24953,0.69685 -2.85951,0.69685 z m 5.31052,-0.12014 q -0.52865,0 -0.88909,-0.33642 -0.33641,-0.36044 -0.33641,-0.88909 v -10.71717 q 0,-0.55267 0.33641,-0.88909 0.36044,-0.33641 0.88909,-0.33641 0.55268,0 0.8891,0.33641 0.33641,0.33642 0.33641,0.88909 v 10.71717 q 0,0.52865 -0.33641,0.88909 -0.33642,0.33642 -0.8891,0.33642 z"
         inkscape:connector-curvature="0" />
      <path
         id="path2137"
         style="font-style:normal;font-variant:normal;font-weight:bold;font-stretch:normal;font-family:Comfortaa;-inkscape-font-specification:'Comfortaa Bold';fill:#001821;fill-opacity:1;stroke-width:0.75092244"
         d="m 117.28845,234.74451 -1.48983,-1.63401 7.37706,-6.58408 q 0.36044,-0.33642 0.79298,-0.31239 0.45656,0.024 0.76894,0.38447 0.33641,0.36045 0.31238,0.79298 -0.024,0.43253 -0.38447,0.76894 z m -1.12939,4.80591 q -0.52865,0 -0.86506,-0.31239 -0.31238,-0.33641 -0.31238,-0.86506 v -16.41216 q 0,-0.52865 0.31238,-0.84104 0.33641,-0.33641 0.86506,-0.33641 0.52865,0 0.84104,0.33641 0.33641,0.31239 0.33641,0.84104 v 16.41216 q 0,0.52865 -0.33641,0.86506 -0.31239,0.31239 -0.84104,0.31239 z m 8.57854,-0.12015 q -0.38447,0.31238 -0.86506,0.26432 -0.45656,-0.024 -0.76895,-0.4085 l -4.87799,-6.03141 1.68207,-1.58595 4.99814,6.15156 q 0.31238,0.38447 0.26432,0.84103 -0.024,0.43253 -0.43253,0.76895 z"
         inkscape:connector-curvature="0" />
      <path
         id="path2139"
         style="font-style:normal;font-variant:normal;font-weight:bold;font-stretch:normal;font-family:Comfortaa;-inkscape-font-specification:'Comfortaa Bold';fill:#001821;fill-opacity:1;stroke-width:0.75092244"
         d="m 133.37809,239.64653 q -1.94639,0 -3.43622,-0.84103 -1.48983,-0.86506 -2.35489,-2.35489 -0.84104,-1.51386 -0.84104,-3.46025 0,-1.97042 0.84104,-3.46025 0.86506,-1.51386 2.35489,-2.3549 1.48983,-0.86506 3.43622,-0.86506 1.92236,0 3.41219,0.86506 1.48983,0.84104 2.33087,2.3549 0.86506,1.48983 0.86506,3.46025 0,1.94639 -0.84103,3.46025 -0.84104,1.48983 -2.33087,2.35489 -1.48983,0.84103 -3.43622,0.84103 z m 0,-2.16265 q 1.24954,0 2.21072,-0.57671 0.96118,-0.57671 1.48983,-1.58595 0.55268,-1.00924 0.55268,-2.33086 0,-1.32163 -0.55268,-2.33087 -0.52865,-1.03327 -1.48983,-1.60997 -0.96118,-0.57671 -2.21072,-0.57671 -1.24953,0 -2.21071,0.57671 -0.96119,0.5767 -1.51386,1.60997 -0.55268,1.00924 -0.55268,2.33087 0,1.32162 0.55268,2.33086 0.55267,1.00924 1.51386,1.58595 0.96118,0.57671 2.21071,0.57671 z"
         inkscape:connector-curvature="0" />
      <path
         id="path2141"
         style="font-style:normal;font-variant:normal;font-weight:bold;font-stretch:normal;font-family:Comfortaa;-inkscape-font-specification:'Comfortaa Bold';fill:#001821;fill-opacity:1;stroke-width:0.75092244"
         d="m 149.61678,239.64653 q -1.8743,0 -3.38816,-0.86506 -1.48983,-0.88909 -2.37892,-2.40295 -0.86506,-1.51386 -0.86506,-3.41219 0,-1.89833 0.79297,-3.38816 0.81701,-1.51386 2.21072,-2.37893 1.39371,-0.88909 3.14786,-0.88909 1.41775,0 2.61922,0.60074 1.20148,0.57671 2.01848,1.58595 v -6.48797 q 0,-0.55268 0.33641,-0.8891 0.36045,-0.33641 0.8891,-0.33641 0.55268,0 0.88909,0.33641 0.33641,0.33642 0.33641,0.8891 v 10.95746 q 0,1.89833 -0.88909,3.41219 -0.86506,1.51386 -2.35489,2.40295 -1.48983,0.86506 -3.36414,0.86506 z m 0,-2.16265 q 1.22551,0 2.18669,-0.57671 0.96118,-0.60074 1.51386,-1.63401 0.55268,-1.03327 0.55268,-2.30683 0,-1.2976 -0.55268,-2.30684 -0.55268,-1.00924 -1.51386,-1.58594 -0.96118,-0.60074 -2.18669,-0.60074 -1.20147,0 -2.18668,0.60074 -0.96118,0.5767 -1.53789,1.58594 -0.55268,1.00924 -0.55268,2.30684 0,1.27356 0.55268,2.30683 0.57671,1.03327 1.53789,1.63401 0.98521,0.57671 2.18668,0.57671 z"
         inkscape:connector-curvature="0" />
      <path
         id="path2143"
         style="font-style:normal;font-variant:normal;font-weight:bold;font-stretch:normal;font-family:Comfortaa;-inkscape-font-specification:'Comfortaa Bold';fill:#001821;fill-opacity:1;stroke-width:0.75092244"
         d="m 166.72881,239.64653 q -1.99445,0 -3.55637,-0.84103 -1.53789,-0.86506 -2.42698,-2.35489 -0.86506,-1.51386 -0.86506,-3.46025 0,-1.97042 0.817,-3.46025 0.84103,-1.51386 2.30683,-2.3549 1.46581,-0.86506 3.36414,-0.86506 1.8743,0 3.21995,0.84103 1.34566,0.81701 2.04251,2.28281 0.72089,1.44177 0.72089,3.3401 0,0.45656 -0.31239,0.76895 -0.31238,0.28835 -0.79297,0.28835 h -9.6839 v -1.92236 h 9.61181 l -0.98521,0.67282 q -0.024,-1.20147 -0.48059,-2.13862 -0.45656,-0.96118 -1.29759,-1.51386 -0.84104,-0.55268 -2.04251,-0.55268 -1.36969,0 -2.3549,0.60074 -0.96118,0.60074 -1.4658,1.65803 -0.50462,1.03327 -0.50462,2.3549 0,1.32162 0.60074,2.35489 0.60074,1.03327 1.65804,1.63401 1.0573,0.60073 2.42698,0.60073 0.74491,0 1.51386,-0.26432 0.79297,-0.28835 1.27356,-0.6488 0.36045,-0.26432 0.76895,-0.26432 0.43253,-0.024 0.74491,0.24029 0.40851,0.36045 0.43253,0.79298 0.024,0.43253 -0.38447,0.74491 -0.817,0.6488 -2.04251,1.0573 -1.20147,0.4085 -2.30683,0.4085 z"
         inkscape:connector-curvature="0" />
      <path
         id="path2145"
         style="font-style:normal;font-variant:normal;font-weight:bold;font-stretch:normal;font-family:Comfortaa;-inkscape-font-specification:'Comfortaa Bold';fill:#001821;fill-opacity:1;stroke-width:0.75092244"
         d="m 176.17466,239.93489 q -0.67282,0 -1.17744,-0.48059 -0.48059,-0.50462 -0.48059,-1.17745 0,-0.69686 0.48059,-1.17745 0.50462,-0.50462 1.17744,-0.50462 0.69686,0 1.17745,0.50462 0.48059,0.48059 0.48059,1.17745 0,0.67283 -0.48059,1.17745 -0.48059,0.48059 -1.17745,0.48059 z"
         inkscape:connector-curvature="0" />
      <path
         id="path2147"
         style="font-style:normal;font-variant:normal;font-weight:bold;font-stretch:normal;font-family:Comfortaa;-inkscape-font-specification:'Comfortaa Bold';fill:#001821;fill-opacity:1;stroke-width:0.75092244"
         d="m 182.66939,239.55042 q -0.52865,0 -0.88909,-0.33642 -0.33641,-0.36044 -0.33641,-0.88909 v -10.69314 q 0,-0.55267 0.33641,-0.88909 0.36044,-0.33641 0.88909,-0.33641 0.55268,0 0.88909,0.33641 0.33642,0.33642 0.33642,0.88909 v 10.69314 q 0,0.52865 -0.33642,0.88909 -0.33641,0.33642 -0.88909,0.33642 z m 0,-15.28278 q -0.6488,0 -1.12939,-0.45656 -0.45656,-0.48059 -0.45656,-1.12939 0,-0.64879 0.45656,-1.10535 0.48059,-0.48059 1.12939,-0.48059 0.6488,0 1.10536,0.48059 0.48059,0.45656 0.48059,1.10535 0,0.6488 -0.48059,1.12939 -0.45656,0.45656 -1.10536,0.45656 z"
         inkscape:connector-curvature="0" />
      <path
         id="path2149"
         style="font-style:normal;font-variant:normal;font-weight:bold;font-stretch:normal;font-family:Comfortaa;-inkscape-font-specification:'Comfortaa Bold';fill:#001821;fill-opacity:1;stroke-width:0.75092244"
         d="m 199.57979,239.57444 q -0.52865,0 -0.88909,-0.33641 -0.33642,-0.36044 -0.33642,-0.88909 v -5.91126 q 0,-1.36968 -0.50462,-2.23475 -0.50462,-0.86506 -1.36968,-1.27356 -0.84103,-0.43253 -1.94639,-0.43253 -1.00924,0 -1.82624,0.4085 -0.81701,0.4085 -1.2976,1.10536 -0.48059,0.67282 -0.48059,1.56192 h -1.51386 q 0,-1.51386 0.72089,-2.69131 0.74491,-1.20148 2.01848,-1.89833 1.27356,-0.69686 2.85951,-0.69686 1.65804,0 2.95563,0.72089 1.32162,0.69685 2.06654,2.06654 0.76894,1.36968 0.76894,3.36413 v 5.91126 q 0,0.52865 -0.36044,0.88909 -0.33641,0.33641 -0.86506,0.33641 z m -9.87613,0 q -0.52865,0 -0.8891,-0.33641 -0.33641,-0.36044 -0.33641,-0.88909 v -10.71717 q 0,-0.55267 0.33641,-0.88909 0.36045,-0.33641 0.8891,-0.33641 0.55267,0 0.88909,0.33641 0.33641,0.33642 0.33641,0.88909 v 10.71717 q 0,0.52865 -0.33641,0.88909 -0.33642,0.33641 -0.88909,0.33641 z"
         inkscape:connector-curvature="0" />
    </g>
  </g>
</svg>
