<?xml version="1.0" encoding="UTF-8" standalone="no"?>
<!-- Generator: Adobe Illustrator 19.0.0, SVG Export Plug-In . SVG Version: 6.00 Build 0)  -->

<svg
   xmlns:dc="http://purl.org/dc/elements/1.1/"
   xmlns:cc="http://creativecommons.org/ns#"
   xmlns:rdf="http://www.w3.org/1999/02/22-rdf-syntax-ns#"
   xmlns:svg="http://www.w3.org/2000/svg"
   xmlns="http://www.w3.org/2000/svg"
   xmlns:sodipodi="http://sodipodi.sourceforge.net/DTD/sodipodi-0.dtd"
   xmlns:inkscape="http://www.inkscape.org/namespaces/inkscape"
   version="1.1"
   id="Capa_1"
   x="0px"
   y="0px"
   viewBox="0 0 63 63"
   xml:space="preserve"
   sodipodi:docname="branding.svg"
   width="63"
   height="63"
   inkscape:version="0.92.5 (2060ec1f9f, 2020-04-08)"><metadata
   id="metadata49"><rdf:RDF><cc:Work
       rdf:about=""><dc:format>image/svg+xml</dc:format><dc:type
         rdf:resource="http://purl.org/dc/dcmitype/StillImage" /><dc:title></dc:title></cc:Work></rdf:RDF></metadata><defs
   id="defs47" /><sodipodi:namedview
   pagecolor="#ffffff"
   bordercolor="#666666"
   borderopacity="1"
   objecttolerance="10"
   gridtolerance="10"
   guidetolerance="10"
   inkscape:pageopacity="0"
   inkscape:pageshadow="2"
   inkscape:window-width="1320"
   inkscape:window-height="731"
   id="namedview45"
   showgrid="false"
   inkscape:zoom="1.84375"
   inkscape:cx="138.3972"
   inkscape:cy="35.922263"
   inkscape:window-x="46"
   inkscape:window-y="0"
   inkscape:window-maximized="1"
   inkscape:current-layer="Capa_1" />
















<g
   id="g877"
   transform="matrix(0.12304688,0,0,0.12304687,-1.28e-6,1.28e-6)"
   style="fill:#5d78ff;fill-opacity:1"><g
     id="g6"
     style="fill:#5d78ff;fill-opacity:1">
	<g
   id="g4"
   style="fill:#5d78ff;fill-opacity:1">
		<path
   id="path2"
   d="M 436,60 H 406.812 L 390.329,10.552 C 390.325,10.538 390.32,10.525 390.315,10.511 388.386,6.097 386.972,3.452 382.05,1.281 380.113,0.425 377.929,0 376,0 H 136 c -6.349,0 -12.181,4.118 -14.23,10.257 l -0.085,0.254 c -0.004,0.014 -0.009,0.027 -0.014,0.041 L 105.189,60 H 76 C 51.187,60 31,80.187 31,105 v 362 c 0,24.813 20.187,45 45,45 h 360 c 24.813,0 45,-20.187 45,-45 V 105 C 481,80.187 460.813,60 436,60 Z m -51.476,28.006 c 2.133,6.399 -0.297,13.482 -5.91,17.224 l -50.472,33.647 c -5.927,3.952 -13.888,3.165 -18.927,-1.874 l -30.38,-30.38 89.515,-67.136 c 6.729,20.185 9.104,27.309 16.174,48.519 z M 331,30 256,86.25 181,30 Z M 127.477,88.005 c 7.116,-21.349 9.459,-28.377 16.172,-48.519 l 89.515,67.136 -30.38,30.38 c -5.039,5.038 -13,5.825 -18.927,1.874 L 133.386,105.23 c -5.613,-3.742 -8.043,-10.825 -5.909,-17.225 z M 451,467 c 0,8.271 -6.729,15 -15,15 H 76 c -8.271,0 -15,-6.729 -15,-15 V 105 c 0,-8.271 6.729,-15.1 15,-15.1 h 20.805 c -0.941,15.692 6.416,31.275 19.941,40.291 l 50.471,33.647 c 17.748,11.833 41.635,9.525 56.781,-5.622 L 241,141.213 V 195 c 0,8.284 6.716,15 15,15 8.284,0 15,-6.716 15,-15 v -53.787 l 17.003,17.003 c 15.136,15.137 39.018,17.464 56.781,5.623 l 50.471,-33.647 c 13.524,-9.016 20.881,-24.499 19.94,-40.191 H 436 C 444.271,90 451,96.729 451,105 Z"
   inkscape:connector-curvature="0"
   style="fill:#5d78ff;fill-opacity:1" />
	</g>
</g><g
     id="g12"
     style="fill:#5d78ff;fill-opacity:1">
	<g
   id="g10"
   style="fill:#5d78ff;fill-opacity:1">
		<path
   id="path8"
   d="M 406,241 H 286 c -8.284,0 -15,6.716 -15,15 v 120 c 0,5.682 3.21,10.875 8.292,13.417 l 60,30 c 2.111,1.056 4.41,1.583 6.708,1.583 2.298,0 4.597,-0.528 6.708,-1.583 l 60,-30 C 417.79,386.875 421,381.682 421,376 V 256 c 0,-8.284 -6.716,-15 -15,-15 z m -15,125.729 -45,22.5 -45,-22.5 V 331 h 90 z M 391,301 h -90 v -30 h 90 z"
   inkscape:connector-curvature="0"
   style="fill:#5d78ff;fill-opacity:1" />
	</g>
</g><g
     id="g14"
     style="fill:#5d78ff;fill-opacity:1">
</g><g
     id="g16"
     style="fill:#5d78ff;fill-opacity:1">
</g><g
     id="g18"
     style="fill:#5d78ff;fill-opacity:1">
</g><g
     id="g20"
     style="fill:#5d78ff;fill-opacity:1">
</g><g
     id="g22"
     style="fill:#5d78ff;fill-opacity:1">
</g><g
     id="g24"
     style="fill:#5d78ff;fill-opacity:1">
</g><g
     id="g26"
     style="fill:#5d78ff;fill-opacity:1">
</g><g
     id="g28"
     style="fill:#5d78ff;fill-opacity:1">
</g><g
     id="g30"
     style="fill:#5d78ff;fill-opacity:1">
</g><g
     id="g32"
     style="fill:#5d78ff;fill-opacity:1">
</g><g
     id="g34"
     style="fill:#5d78ff;fill-opacity:1">
</g><g
     id="g36"
     style="fill:#5d78ff;fill-opacity:1">
</g><g
     id="g38"
     style="fill:#5d78ff;fill-opacity:1">
</g><g
     id="g40"
     style="fill:#5d78ff;fill-opacity:1">
</g><g
     id="g42"
     style="fill:#5d78ff;fill-opacity:1">
</g></g>
</svg>